<svg width="21" height="21" viewBox="0 0 21 21" fill="none" xmlns="http://www.w3.org/2000/svg">
<path d="M10.4805 1.10352C15.7449 1.10352 20.0126 5.37131 20.0127 10.6357C20.0127 15.9003 15.745 20.168 10.4805 20.168C5.21604 20.1678 0.948242 15.9002 0.948242 10.6357C0.948366 5.37139 5.21612 1.10364 10.4805 1.10352Z" fill="#1C2D4A" stroke="#1C2D4A" stroke-width="1.12144"/>
<path d="M10.4971 5.42188C12.8549 5.42188 14.4209 7.26996 14.4209 9.32617C14.4209 10.0409 14.3684 10.6437 14.1338 11.3154C12.6361 11.4659 11.5571 12.0482 10.8447 12.9697C10.7094 13.1449 10.5928 13.3276 10.4902 13.5137C10.3902 13.3303 10.2767 13.1503 10.1455 12.9775C9.44866 12.0597 8.3946 11.4705 6.93457 11.3164C6.65223 10.5851 6.54102 9.97302 6.54102 9.30859C6.54123 7.29597 8.13019 5.422 10.4971 5.42188Z" stroke="#F2F2F2" stroke-width="2.24289"/>
</svg>
