<svg width="24" height="24" viewBox="0 0 24 24" fill="none" xmlns="http://www.w3.org/2000/svg">
<circle cx="12" cy="12" r="12" fill="white"/>
<path d="M14.4246 9.76788L14.9244 9.784L14.9416 9.25094L14.4085 9.26814L14.4246 9.76788ZM8.41421 15.0712C8.21895 15.2664 8.21895 15.583 8.41421 15.7783C8.60947 15.9735 8.92605 15.9735 9.12132 15.7783L8.41421 15.0712ZM14.3068 13.4213L14.8065 13.4374L14.9244 9.784L14.4246 9.76788L13.9249 9.75176L13.807 13.4051L14.3068 13.4213ZM14.4246 9.76788L14.4085 9.26814L10.7551 9.38599L10.7712 9.88573L10.7874 10.3855L14.4407 10.2676L14.4246 9.76788ZM14.4246 9.76788L14.0711 9.41432L8.41421 15.0712L8.76776 15.4247L9.12132 15.7783L14.7782 10.1214L14.4246 9.76788Z" fill="#345389"/>
</svg>
