<svg width="25" height="24" viewBox="0 0 25 24" fill="none" xmlns="http://www.w3.org/2000/svg">
<circle cx="12.3139" cy="12" r="12" fill="#345389"/>
<path d="M14.5827 9.39384L14.9401 9.38513L14.9318 9.04475L14.5915 9.03645L14.5827 9.39384ZM9.02666 14.4444C8.88704 14.584 8.88704 14.8103 9.02666 14.9499C9.16627 15.0895 9.39263 15.0895 9.53224 14.9499L9.02666 14.4444ZM14.6711 13.0178L15.0285 13.0091L14.9401 9.38513L14.5827 9.39384L14.2254 9.40256L14.3137 13.0265L14.6711 13.0178ZM14.5827 9.39384L14.5915 9.03645L10.9675 8.94806L10.9588 9.30546L10.9501 9.66285L14.574 9.75124L14.5827 9.39384ZM14.5827 9.39384L14.33 9.14105L9.02666 14.4444L9.27945 14.6971L9.53224 14.9499L14.8355 9.64664L14.5827 9.39384Z" fill="white"/>
</svg>
