<svg width="21" height="17" viewBox="0 0 21 17" fill="none" xmlns="http://www.w3.org/2000/svg">
<mask id="mask0_79_200" style="mask-type:alpha" maskUnits="userSpaceOnUse" x="0" y="0" width="21" height="17">
<path fill-rule="evenodd" clip-rule="evenodd" d="M2.22275 0.0078125H18.7382C19.7517 0.0078125 20.5732 0.829392 20.5732 1.84286V14.6882C20.5732 15.7017 19.7517 16.5233 18.7382 16.5233H2.22275C1.20928 16.5233 0.387695 15.7017 0.387695 14.6882V1.84286C0.387695 0.829392 1.20928 0.0078125 2.22275 0.0078125Z" fill="#D9D9D9"/>
</mask>
<g mask="url(#mask0_79_200)">
<path d="M18.7383 0.00146484C19.7517 0.00151263 20.5732 0.823962 20.5732 1.8374V14.6821C20.5732 15.6956 19.7517 16.517 18.7383 16.5171H2.22266C1.20923 16.517 0.387695 15.6956 0.387695 14.6821V1.8374C0.387695 0.823962 1.20923 0.00151283 2.22266 0.00146484H18.7383Z" fill="#1C2D4A"/>
<path fill-rule="evenodd" clip-rule="evenodd" d="M10.4807 8.1128L23.1282 1.78906L24.3122 4.15719L10.4807 11.073L-3.34961 4.15716L-2.16545 1.78909L10.4807 8.1128Z" fill="#F2F2F2"/>
</g>
</svg>
