<svg width="21" height="22" viewBox="0 0 21 22" fill="none" xmlns="http://www.w3.org/2000/svg">
<path d="M10.4805 1.39453C15.7449 1.39453 20.0126 5.66233 20.0127 10.9268C20.0127 16.1913 15.745 20.459 10.4805 20.459C5.21604 20.4589 0.948242 16.1912 0.948242 10.9268C0.948366 5.66241 5.21612 1.39466 10.4805 1.39453Z" fill="#1C2D4A" stroke="#1C2D4A" stroke-width="1.12144"/>
<path d="M15.1755 7.40007L13.7728 8.78854C12.8851 7.84865 11.8503 7.37871 10.6683 7.37871C9.63825 7.37871 8.77431 7.72049 8.07652 8.40404C7.38347 9.08759 7.03695 9.9183 7.03695 10.8962C7.03695 11.9072 7.39771 12.7641 8.11924 13.4666C8.84077 14.1691 9.73081 14.5204 10.7894 14.5204C11.4777 14.5204 12.0568 14.3756 12.5267 14.0861C13.0014 13.7965 13.3835 13.3432 13.6731 12.7261H10.6398V10.8534H15.9089L15.9231 11.2949C15.9231 12.211 15.6858 13.0797 15.2111 13.9009C14.7364 14.7222 14.1217 15.3487 13.3669 15.7807C12.6122 16.2127 11.7269 16.4287 10.711 16.4287C9.62401 16.4287 8.65327 16.1937 7.79883 15.7238C6.94913 15.2491 6.27507 14.575 5.77665 13.7016C5.28297 12.8281 5.03613 11.8859 5.03613 10.8748C5.03613 9.4887 5.49421 8.28299 6.41036 7.25766C7.4974 6.03771 8.91197 5.42773 10.6541 5.42773C11.5655 5.42773 12.4176 5.59625 13.2103 5.93328C13.8796 6.21809 14.5347 6.70702 15.1755 7.40007Z" fill="#F2F2F2"/>
</svg>
