<svg width="20" height="24" viewBox="0 0 20 24" fill="none" xmlns="http://www.w3.org/2000/svg">
<path d="M10.4814 0.916016C13.0458 0.916016 15.5831 1.84415 17.3008 3.66406C19.0049 5.46978 19.9543 8.20796 19.2588 11.9463C18.7781 14.53 17.254 15.9273 15.415 17.3584C13.7735 18.6358 11.8591 19.951 10.4814 22.1602C9.10422 19.9505 7.19027 18.6349 5.54883 17.3574C3.70998 15.9263 2.18573 14.5294 1.70508 11.9463C1.00959 8.20796 1.95901 5.46978 3.66309 3.66406C5.38066 1.84427 7.91727 0.916127 10.4814 0.916016Z" fill="#1C2D4A" stroke="#1C2D4A"/>
<path d="M10.4814 13.5686C12.3805 13.5686 13.92 12.0291 13.92 10.13C13.92 8.23091 12.3805 6.69141 10.4814 6.69141C8.58235 6.69141 7.04285 8.23091 7.04285 10.13C7.04285 12.0291 8.58235 13.5686 10.4814 13.5686Z" fill="#F2F2F2"/>
</svg>
