<svg width="21" height="21" viewBox="0 0 21 21" fill="none" xmlns="http://www.w3.org/2000/svg">
<path fill-rule="evenodd" clip-rule="evenodd" d="M8.4437 6.11057C8.96941 6.69332 8.80273 7.3535 8.3379 7.97992C8.22769 8.12843 8.10067 8.27476 7.94724 8.43601C7.8736 8.51341 7.81618 8.57162 7.69607 8.69184C7.42329 8.96489 7.19399 9.19432 7.00814 9.38015C6.91802 9.47026 7.53332 10.6998 8.72745 11.8951C9.92094 13.0898 11.1504 13.7055 11.241 13.6149L11.9284 12.9271C12.307 12.5481 12.5075 12.3653 12.783 12.1846C13.3557 11.8088 13.9804 11.7067 14.5072 12.1778C16.2275 13.4083 17.2009 14.1634 17.6778 14.6589C18.608 15.6255 18.4861 17.1132 17.6831 17.9619C17.4047 18.2562 17.0516 18.6095 16.6346 19.0115C14.1122 21.5353 8.78863 19.9994 4.70873 15.9155C0.627895 11.8307 -0.907196 6.50664 1.60996 3.98813C2.06186 3.52913 2.21086 3.38021 2.65097 2.94655C3.47038 2.13915 5.02677 2.01273 5.97289 2.94735C6.47055 3.43896 7.26396 4.45979 8.4437 6.11057ZM12.1937 0.0585938C16.571 0.589171 20.0418 4.06 20.5724 8.43726L18.5723 8.77061C18.1861 5.24479 15.3862 2.44486 11.8604 2.05868L12.1937 0.0585938ZM11.5258 4.05859C14.2003 4.2978 16.3304 6.42786 16.5696 9.10235L14.5631 9.43676C14.4779 7.6134 13.0148 6.15025 11.1914 6.0651L11.5258 4.05859Z" fill="#1C2D4A"/>
</svg>
