<svg width="54" height="53" viewBox="0 0 54 53" fill="none" xmlns="http://www.w3.org/2000/svg">
<ellipse cx="26.6861" cy="26.2029" rx="26.6861" ry="25.8604" fill="url(#paint0_linear_69_420)"/>
<path d="M27.4297 13.4179C34.2192 13.4182 39.8242 18.782 39.8242 25.4814C39.8241 32.1806 34.2191 37.5446 27.4297 37.5449C25.163 37.5449 23.0376 36.9511 21.2021 35.9081L18.0791 36.5517L15.5117 37.08L16.21 34.5536L16.9404 31.9081C15.7312 30.0492 15.0293 27.8428 15.0293 25.4814C15.0293 18.7804 20.6343 13.4179 27.4238 13.4179H27.4297Z" stroke="white" stroke-width="3.20727"/>
<path d="M32.8009 30.6076L32.7094 30.6963C32.2528 31.1423 31.6409 31.4072 30.9935 31.439H30.5416C28.1509 31.439 26.229 30.5743 24.1987 28.6122C22.0424 26.5226 21.1731 24.555 21.2932 22.0275H21.2931C21.3259 21.4001 21.5992 20.8071 22.0595 20.3647L22.151 20.276C22.73 19.7126 23.5485 19.4453 24.3613 19.5543C25.174 19.6632 25.8869 20.1357 26.2864 20.8303L26.4123 21.052H26.4121C26.571 21.3324 26.6319 21.6552 26.5854 21.9721C26.5391 22.2888 26.3879 22.5825 26.1548 22.8091L25.3884 23.5517C25.8309 24.3771 26.4105 25.1261 27.1042 25.7688C27.7675 26.4411 28.5404 27.0028 29.3921 27.4316L30.1528 26.6999C30.392 26.4722 30.702 26.327 31.035 26.2869C31.3678 26.2469 31.705 26.314 31.9945 26.4782L32.2233 26.6002C32.9401 26.9873 33.4276 27.6781 33.54 28.4658C33.6524 29.2534 33.3767 30.0464 32.7953 30.6075L32.8009 30.6076Z" fill="white"/>
<defs>
<linearGradient id="paint0_linear_69_420" x1="48.247" y1="3.81756" x2="13.0649" y2="53.1194" gradientUnits="userSpaceOnUse">
<stop stop-color="#65C84C"/>
<stop offset="1" stop-color="#30871A"/>
</linearGradient>
</defs>
</svg>
