<svg width="41" height="40" viewBox="0 0 41 40" fill="none" xmlns="http://www.w3.org/2000/svg">
<path d="M15.9657 35.6459C12.0581 35.6459 8.21564 35.6459 4.32434 35.6459C4.32434 35.5092 4.32434 35.3648 4.32434 35.2194C4.32434 24.2597 4.32434 13.3011 4.32434 2.34145C4.32434 0.884793 5.12648 0.0869957 6.58965 0.0869957C14.0249 0.0859103 21.4602 0.0859103 28.8954 0.0869957C30.3694 0.0869957 31.1423 0.864167 31.1455 2.34579C31.1466 2.68445 31.1455 3.02202 31.1455 3.4182C30.9805 3.4182 30.8373 3.4182 30.6929 3.4182C28.3907 3.4182 26.0885 3.41712 23.7852 3.4182C22.4251 3.41929 21.5427 4.29307 21.5416 5.64878C21.5394 12.436 21.5394 19.2222 21.5416 26.0094C21.5416 27.3282 22.4099 28.1966 23.732 28.1988C26.0613 28.2031 28.3907 28.1998 30.72 28.1998C30.8666 28.1998 31.012 28.1998 31.1824 28.1998C31.1922 28.3507 31.2063 28.4679 31.2063 28.5852C31.2074 31.6743 31.2193 34.7624 31.1922 37.8505C31.189 38.2608 31.0554 38.7134 30.8503 39.0694C30.4693 39.7283 29.7214 39.9801 28.9801 39.8129C28.2626 39.6512 27.6189 38.9478 27.5408 38.1739C27.4898 37.6638 27.5061 37.146 27.5028 36.6315C27.4963 35.825 27.2955 35.6177 26.4999 35.6177C23.466 35.6177 20.4323 35.6177 17.3985 35.6177C17.253 35.6177 17.1086 35.6177 16.9415 35.6177C17.8532 33.7964 18.752 32.013 19.6323 30.2209C19.7463 29.9886 19.8136 29.7075 19.8136 29.4492C19.8233 21.5646 19.8212 13.681 19.8212 5.7964C19.8212 4.75221 19.3197 4.24422 18.2831 4.24097C17.0641 4.23771 15.8452 4.23663 14.6262 4.24097C13.6103 4.24422 13.0936 4.75655 13.0936 5.76601C13.0914 13.6778 13.0914 21.5884 13.1001 29.5002C13.1001 29.7325 13.1685 29.9832 13.2716 30.1938C14.1486 31.9924 15.0409 33.7801 15.9657 35.6459ZM8.62593 9.94277C9.16648 9.94277 9.70703 9.9482 10.2476 9.9406C10.748 9.93409 10.9857 9.71266 10.9813 9.28174C10.9759 8.79004 10.7317 8.54473 10.2237 8.54256C9.16974 8.53822 8.11578 8.53713 7.06182 8.54256C6.57011 8.54473 6.24665 8.83888 6.25425 9.25677C6.26185 9.66707 6.56143 9.93409 7.04554 9.9406C7.57197 9.94928 8.09841 9.94277 8.62593 9.94277ZM8.6509 31.4637C9.17842 31.4637 9.70595 31.4681 10.2335 31.4627C10.7208 31.4572 10.9781 31.2445 10.9813 30.8581C10.9857 30.3935 10.7415 30.1265 10.2595 30.1222C9.19145 30.1113 8.12229 30.1124 7.05422 30.1211C6.57012 30.1254 6.25859 30.4076 6.25534 30.8027C6.25208 31.1859 6.58205 31.4572 7.06942 31.4627C7.59585 31.4681 8.12338 31.4637 8.6509 31.4637ZM8.64005 15.7759C8.11252 15.7759 7.585 15.7716 7.05748 15.777C6.5636 15.7813 6.26293 16.0169 6.25425 16.3924C6.24557 16.7713 6.57771 17.0567 7.06399 17.06C8.13206 17.0665 9.20013 17.0676 10.2693 17.0589C10.7469 17.0556 10.9813 16.8483 10.9824 16.4706C10.9824 16.0397 10.7273 15.7857 10.2628 15.7781C9.72223 15.7694 9.18059 15.7759 8.64005 15.7759ZM8.614 24.2293C9.15454 24.2293 9.69509 24.2336 10.2356 24.2282C10.697 24.2228 10.9672 23.9883 10.9748 23.6019C10.9835 23.2101 10.7176 22.9496 10.2639 22.9463C9.18276 22.9376 8.10167 22.9376 7.02057 22.9463C6.58423 22.9496 6.26402 23.2285 6.25425 23.5726C6.24448 23.933 6.57554 24.2195 7.03251 24.2261C7.56003 24.2358 8.08756 24.2293 8.614 24.2293Z" fill="white"/>
<path d="M40.8113 15.715C40.8113 19.1016 40.8113 22.4882 40.8113 25.8747C40.8113 26.6096 40.6377 26.7843 39.9028 26.7843C34.5538 26.7854 29.2037 26.7854 23.8546 26.7843C23.1458 26.7843 22.9646 26.6041 22.9646 25.8964C22.9635 19.1504 22.9635 12.4045 22.9646 5.65845C22.9646 4.95075 23.1469 4.76839 23.8546 4.76839C29.2308 4.76731 34.6081 4.76731 39.9842 4.76839C40.6898 4.76839 40.8135 4.89647 40.8135 5.59658C40.8113 8.96904 40.8113 12.3415 40.8113 15.715ZM31.939 11.9399C32.2505 11.9399 32.562 11.9399 32.8735 11.9399C34.4029 11.9399 35.9334 11.9421 37.4628 11.9377C37.9186 11.9366 38.2519 11.6468 38.2443 11.2886C38.2247 10.3844 38.2085 9.48136 38.1933 8.57719C38.1835 8.00734 37.9773 7.77723 37.4161 7.77614C33.7473 7.7718 30.0785 7.7718 26.4097 7.77723C25.867 7.77831 25.6597 8.003 25.6554 8.5544C25.6499 9.39344 25.6499 10.2336 25.6554 11.0726C25.6586 11.7358 25.8681 11.9388 26.5378 11.9388C28.3375 11.941 30.1382 11.9399 31.939 11.9399ZM36.4457 23.2643C36.2297 23.2643 36.0137 23.2567 35.7977 23.2653C35.344 23.2838 35.0574 23.54 35.065 23.9079C35.0715 24.252 35.3635 24.5299 35.7738 24.5451C36.2188 24.5614 36.665 24.5624 37.1089 24.544C37.4953 24.5288 37.7504 24.2737 37.7493 23.9492C37.7482 23.5671 37.4921 23.2936 37.0937 23.2675C36.8777 23.2545 36.6617 23.2653 36.4457 23.2643ZM27.3041 24.5483C27.5484 24.5483 27.7926 24.5624 28.0346 24.5451C28.4189 24.5169 28.6718 24.2585 28.662 23.9329C28.6501 23.5671 28.4004 23.2871 28.0238 23.2708C27.5646 23.2512 27.1022 23.2501 26.6431 23.2729C26.2806 23.2914 26.0309 23.5801 26.0353 23.9133C26.0396 24.2498 26.2914 24.5169 26.6551 24.5451C26.8689 24.5624 27.0871 24.5483 27.3041 24.5483ZM31.9292 23.2653C31.6991 23.2653 31.4679 23.2545 31.2389 23.2675C30.8503 23.2903 30.5789 23.5573 30.5767 23.9014C30.5746 24.2466 30.8438 24.531 31.2269 24.5451C31.673 24.5614 32.1213 24.5624 32.5674 24.544C32.9538 24.5277 33.2111 24.2672 33.2068 23.9437C33.2013 23.5638 32.9397 23.2914 32.5381 23.2675C32.3362 23.2545 32.1322 23.2653 31.9292 23.2653ZM36.4425 16.5324C36.4425 16.5335 36.4425 16.5335 36.4425 16.5345C36.6715 16.5345 36.9016 16.5497 37.1295 16.5313C37.5268 16.4998 37.758 16.261 37.7461 15.9245C37.732 15.5479 37.4932 15.2906 37.1111 15.2787C36.653 15.2646 36.195 15.2657 35.7369 15.2787C35.3342 15.2906 35.0683 15.5424 35.0639 15.8865C35.0596 16.2143 35.3342 16.4976 35.7163 16.5302C35.9562 16.5487 36.2004 16.5324 36.4425 16.5324ZM36.424 20.5007C36.424 20.5018 36.424 20.5018 36.424 20.5029C36.6661 20.5029 36.9103 20.5181 37.1512 20.4996C37.5203 20.4714 37.7493 20.2348 37.7471 19.9146C37.745 19.5564 37.5268 19.2753 37.1697 19.2557C36.6726 19.2297 36.1722 19.2297 35.675 19.2557C35.293 19.2753 35.0542 19.5477 35.0618 19.8777C35.0694 20.1914 35.3375 20.4671 35.6957 20.4975C35.9377 20.517 36.1809 20.5007 36.424 20.5007ZM31.901 15.2765C31.901 15.2754 31.901 15.2754 31.901 15.2743C31.685 15.2743 31.4679 15.2743 31.2519 15.2743C31.2247 15.2743 31.1976 15.2754 31.1705 15.2776C30.8286 15.3145 30.5865 15.5631 30.5757 15.8855C30.5659 16.2046 30.7971 16.502 31.1347 16.5204C31.6329 16.5476 32.1354 16.5487 32.6347 16.5215C33.0005 16.502 33.223 16.2317 33.2046 15.9115C33.1829 15.5511 32.9506 15.3015 32.5913 15.2787C32.3612 15.2646 32.1311 15.2765 31.901 15.2765ZM27.3769 15.2754C27.1337 15.2754 26.8895 15.2635 26.6464 15.2787C26.2817 15.3015 26.0157 15.5685 26.0363 15.9061C26.0581 16.2567 26.2404 16.5074 26.6105 16.5248C27.0957 16.5476 27.5842 16.5497 28.0705 16.5259C28.4395 16.5074 28.6707 16.248 28.662 15.9321C28.6523 15.5609 28.4048 15.2993 28.026 15.2776C27.81 15.2646 27.5929 15.2754 27.3769 15.2754ZM27.3193 20.5029C27.5625 20.5029 27.8078 20.517 28.0498 20.4996C28.4178 20.4736 28.6599 20.2348 28.6631 19.9222C28.6664 19.5727 28.4384 19.2742 28.0867 19.2557C27.5885 19.2297 27.086 19.2286 26.5867 19.2579C26.2426 19.2785 26.007 19.5716 26.0374 19.8951C26.07 20.2457 26.2599 20.4747 26.629 20.4996C26.858 20.5148 27.0892 20.5029 27.3193 20.5029ZM31.8717 20.4986C32.1289 20.4986 32.3873 20.5181 32.6423 20.4931C32.9788 20.4606 33.2046 20.2674 33.2002 19.9146C33.1959 19.5738 33.0363 19.285 32.664 19.2612C32.1528 19.2286 31.6361 19.2308 31.1238 19.259C30.7765 19.2785 30.6028 19.5304 30.58 19.8625C30.5572 20.1816 30.8069 20.4627 31.1423 20.4942C31.3832 20.5181 31.6285 20.4996 31.8717 20.4986Z" fill="white"/>
<path d="M0.557978 36.9919C9.11232 36.9919 17.6102 36.9919 26.1808 36.9919C26.1808 37.5021 26.1255 38.0057 26.196 38.492C26.2644 38.9631 26.462 39.4146 26.6107 39.8998C26.5499 39.9031 26.437 39.9172 26.3241 39.9172C18.4178 39.9183 10.5125 39.9183 2.6062 39.9172C1.31127 39.9172 0.562319 39.1682 0.557978 37.8798C0.556892 37.5976 0.557978 37.3154 0.557978 36.9919Z" fill="white"/>
<path d="M14.4017 5.61963C15.7347 5.61963 17.0437 5.61963 18.3853 5.61963C18.3853 10.1654 18.3853 14.7015 18.3853 19.2636C17.0589 19.2636 15.7412 19.2636 14.4017 19.2636C14.4017 14.7243 14.4017 10.1958 14.4017 5.61963Z" fill="white"/>
<path d="M16.4302 33.5707C15.9939 32.7143 15.6411 31.9078 15.1874 31.1621C14.5394 30.0962 14.3158 28.9825 14.3592 27.7354C14.4341 25.5591 14.3798 23.3784 14.3798 21.1989C14.3798 21.0534 14.3798 20.9069 14.3798 20.7375C15.7356 20.7375 17.0533 20.7375 18.4198 20.7375C18.4198 20.9036 18.4198 21.048 18.4198 21.1934C18.4198 23.8462 18.4242 26.4991 18.4133 29.1519C18.4122 29.3852 18.358 29.6381 18.2581 29.8476C17.6731 31.0666 17.0685 32.2747 16.4302 33.5707Z" fill="white"/>
</svg>
