<svg width="41" height="31" viewBox="0 0 41 31" fill="none" xmlns="http://www.w3.org/2000/svg">
<path d="M13.9216 30.2303C13.9216 30.0964 13.9216 30.0227 13.9216 29.949C13.9216 26.25 13.9226 22.5522 13.9164 18.8532C13.9164 18.684 13.9673 18.5968 14.1178 18.5366C14.9068 18.2241 15.6937 17.9033 16.4847 17.5971C16.5387 17.5763 16.6571 17.6199 16.6934 17.6708C17.7087 19.0962 18.7188 20.5257 19.7248 21.9583C19.7767 22.0321 19.8151 22.1338 19.8162 22.2231C19.8203 24.9461 19.8193 27.6692 19.8193 30.3923C19.8193 30.4213 19.8141 30.4494 19.8047 30.5407C17.8468 30.4379 15.893 30.3341 13.9216 30.2303Z" fill="white"/>
<path d="M26.4187 30.2321C24.4763 30.338 22.5433 30.4429 20.5823 30.5488C20.5823 30.4065 20.5823 30.3256 20.5823 30.2456C20.5823 27.5838 20.5812 24.922 20.5854 22.2602C20.5854 22.1543 20.603 22.0297 20.6612 21.9467C21.6692 20.5078 22.6835 19.0741 23.6977 17.6394C23.7195 17.6093 23.7434 17.5813 23.7984 17.5117C24.6217 17.8553 25.4512 18.2021 26.2817 18.5457C26.3917 18.5914 26.4353 18.6526 26.4353 18.7793C26.4312 22.5436 26.4322 26.3079 26.4322 30.0723C26.4322 30.1013 26.427 30.1304 26.4187 30.2321Z" fill="white"/>
<path d="M14.3638 10.2925C18.2828 10.2925 22.1654 10.2925 26.0938 10.2925C26.1799 12.3771 25.475 14.1305 23.814 15.3794C21.8073 16.8878 19.5929 17.0446 17.3993 15.8341C15.269 14.6589 14.3108 12.7467 14.3638 10.2925Z" fill="white"/>
<path d="M24.8844 16.6989C25.5498 16.349 26.2122 15.994 26.8818 15.6535C27.1133 15.5351 27.3676 15.4624 27.6023 15.3503C27.7767 15.2673 27.8722 15.3026 27.9833 15.4624C28.821 16.6646 29.6692 17.8595 30.5143 19.0565C30.5402 19.0928 30.5682 19.1281 30.6077 19.1811C31.5399 17.872 32.466 16.5702 33.3993 15.26C34.3637 15.6119 35.271 16.0583 36.0974 16.6584C36.1618 16.7051 36.1971 16.8318 36.1971 16.921C36.2022 19.5154 36.2012 22.1107 36.2012 24.7051C36.2012 24.9667 36.2012 25.2283 36.2012 25.5117C35.977 25.5397 35.7652 25.575 35.5524 25.5906C34.7841 25.6487 34.0149 25.6955 33.2466 25.7588C33.0847 25.7723 33.0868 25.6622 33.0546 25.5709C32.7795 24.7923 32.5667 23.9846 32.221 23.2382C30.7925 20.1528 28.44 18.063 25.2457 16.9117C25.1356 16.8723 25.0256 16.8307 24.9155 16.7902C24.9062 16.7601 24.8948 16.729 24.8844 16.6989Z" fill="white"/>
<path d="M4.33429 25.5229C4.33429 25.4119 4.33429 25.3309 4.33429 25.2499C4.33429 22.4739 4.33637 19.6989 4.33014 16.9229C4.33014 16.7579 4.38724 16.6696 4.51493 16.5824C5.28419 16.0582 6.10952 15.645 6.97845 15.3128C7.11859 15.2588 7.17673 15.3055 7.25044 15.4103C8.09341 16.6177 8.94054 17.823 9.78766 19.0293C9.81777 19.0719 9.85099 19.1124 9.89667 19.1716C10.8258 17.8739 11.7477 16.5886 12.683 15.2837C13.7025 15.6481 14.6576 16.1308 15.566 16.7547C15.0531 16.9634 14.5621 17.1389 14.0918 17.3579C11.6397 18.4968 9.74302 20.2325 8.46714 22.6307C7.9678 23.5702 7.58887 24.5554 7.3065 25.58C7.28989 25.6423 7.19853 25.7326 7.14766 25.7295C6.21333 25.6693 5.28316 25.5956 4.33429 25.5229Z" fill="white"/>
<path d="M27.5181 19.2505C28.059 19.7042 28.5812 20.0924 29.0452 20.5409C30.3024 21.7535 31.1122 23.2505 31.7008 24.8772C32.0268 25.7784 32.2438 26.7065 32.3683 27.6553C32.3964 27.8692 32.4161 28.0862 32.4192 28.3021C32.4254 28.8783 32.0621 29.3236 31.4901 29.4212C30.3803 29.6102 29.2674 29.7856 28.1566 29.9673C27.951 30.0005 27.7455 30.0327 27.5192 30.0701C27.5181 26.475 27.5181 22.9048 27.5181 19.2505Z" fill="white"/>
<path d="M12.8325 30.0618C12.3809 29.9974 11.9439 29.9455 11.512 29.8718C10.5995 29.7151 9.68696 29.5604 8.77962 29.3787C8.26989 29.277 7.93353 28.8461 7.95222 28.3271C7.98544 27.3907 8.17127 26.4761 8.44118 25.5812C8.95299 23.89 9.73263 22.339 10.9026 21.004C11.4476 20.3821 12.0736 19.8485 12.764 19.3907C12.7806 19.3793 12.8014 19.3762 12.8325 19.3647C12.8325 22.9266 12.8325 26.4761 12.8325 30.0618Z" fill="white"/>
<path d="M28.4732 8.9502C30.835 8.9502 33.1657 8.9502 35.5523 8.9502C35.5108 9.35092 35.4952 9.74438 35.4267 10.1275C35.2212 11.2736 34.6959 12.2546 33.8321 13.0415C33.1293 13.6831 32.3071 14.0703 31.351 14.1721C30.3346 14.28 29.3546 14.1897 28.4328 13.7153C27.867 13.4246 27.3707 13.0436 26.9638 12.5546C26.9119 12.4924 26.888 12.3802 26.8984 12.2961C26.971 11.6899 27.0551 11.0846 27.1403 10.4804C27.1475 10.4316 27.1787 10.359 27.215 10.3475C27.9054 10.1285 28.2947 9.63641 28.4732 8.9502Z" fill="white"/>
<path d="M11.9293 8.95972C12.0456 9.41235 12.2522 9.82138 12.6623 10.0882C12.817 10.1889 12.9976 10.2491 13.1585 10.3405C13.2166 10.3737 13.2862 10.4391 13.2955 10.4993C13.4035 11.1305 13.5052 11.7627 13.5966 12.397C13.608 12.4759 13.5758 12.586 13.5229 12.6451C12.7713 13.4881 11.8515 14.0383 10.7199 14.1878C9.0298 14.411 7.54837 13.9729 6.35554 12.7251C5.54787 11.88 5.12015 10.8502 5.00284 9.69057C4.99038 9.57119 4.97273 9.45284 4.96651 9.33345C4.96028 9.21406 4.96547 9.09468 4.96547 8.95972C7.28883 8.95972 9.60286 8.95972 11.9293 8.95972Z" fill="white"/>
<path d="M32.6341 1.24616C34.4177 1.86282 35.8358 3.97856 35.7372 5.96039C33.012 5.96039 30.2859 5.96039 27.5711 5.96039C27.3967 5.49841 27.2555 5.02606 27.0437 4.58692C26.8309 4.14571 26.5558 3.73356 26.2942 3.31727C26.2257 3.20722 26.2101 3.14389 26.29 3.02762C26.833 2.23552 27.541 1.64897 28.4214 1.26796C28.44 1.25966 28.4618 1.25966 28.5065 1.25032C28.5065 1.40708 28.5065 1.55449 28.5065 1.70087C28.5065 2.60821 28.5065 3.51555 28.5065 4.42289C28.5065 4.72915 28.657 4.90252 28.9155 4.8994C29.1657 4.89629 29.3266 4.70942 29.3266 4.41355C29.3277 3.30377 29.3411 2.19399 29.3214 1.08421C29.3121 0.54749 29.6952 0.0471041 30.3087 0.10005C30.5174 0.117698 30.7281 0.101087 30.9378 0.104201C31.4538 0.111468 31.7901 0.451981 31.7912 0.965864C31.7922 2.06007 31.7912 3.15532 31.7912 4.24952C31.7912 4.57031 31.9417 4.76029 32.194 4.76029C32.4805 4.76029 32.6331 4.5755 32.6331 4.23291C32.6331 3.24563 32.6341 2.25732 32.6341 1.24616Z" fill="white"/>
<path d="M12.0311 1.24304C13.0288 1.62507 13.7555 2.28534 14.3337 3.13973C13.7752 3.84982 13.3537 4.62532 13.0796 5.47972C13.0298 5.6344 13.0308 5.86175 12.927 5.92819C12.7973 6.01125 12.5834 5.97076 12.4048 5.97076C9.96001 5.97283 7.51622 5.9718 5.07139 5.9718C4.98315 5.9718 4.89387 5.9718 4.8077 5.9718C4.71842 4.05123 6.07112 1.9116 7.93356 1.23888C7.93356 1.36346 7.93356 1.47973 7.93356 1.59705C7.93356 2.51165 7.93356 3.42626 7.93356 4.34191C7.93356 4.60352 8.07889 4.76651 8.31351 4.77066C8.55332 4.77585 8.74642 4.5838 8.74746 4.33049C8.74954 3.24355 8.7485 2.15557 8.74954 1.06863C8.74954 0.469616 9.11496 0.104189 9.70982 0.105227C9.91226 0.106265 10.1147 0.10419 10.3171 0.106266C10.8165 0.112495 11.1788 0.468579 11.1809 0.971043C11.185 2.07355 11.1819 3.17607 11.1819 4.27754C11.1819 4.57341 11.3356 4.75509 11.5899 4.75716C11.8328 4.75924 12.0249 4.56615 12.0301 4.29104C12.0384 3.85605 12.0321 3.42107 12.0321 2.98609C12.0311 2.41614 12.0311 1.84724 12.0311 1.24304Z" fill="white"/>
<path d="M20.2221 7.76469C22.4188 7.76469 24.6155 7.76469 26.8122 7.76469C27.2036 7.76469 27.3313 7.84463 27.3853 8.22666C27.4174 8.45402 27.3925 8.70317 27.3344 8.92741C27.2607 9.2129 27.0987 9.30218 26.7987 9.30218C22.4053 9.30322 18.0108 9.30218 13.6174 9.30426C13.362 9.30426 13.1876 9.19837 13.0911 8.96686C12.9654 8.6658 12.9551 8.36162 13.0724 8.05329C13.1513 7.8467 13.2873 7.75846 13.5177 7.76053C14.777 7.76884 16.0373 7.76469 17.2966 7.76469C18.2724 7.76469 19.2473 7.76469 20.2221 7.76469Z" fill="white"/>
<path d="M21.6194 6.86256C20.6913 6.86256 19.7944 6.86256 18.8818 6.86256C18.8787 6.79612 18.8735 6.73798 18.8735 6.68089C18.8735 4.8143 18.8735 2.94875 18.8735 1.08216C18.8735 0.759296 18.9701 0.466538 19.24 0.28071C19.3905 0.176895 19.5836 0.10734 19.7663 0.0834628C20.0165 0.0502421 20.2771 0.0969576 20.5294 0.0710039C21.1637 0.00456253 21.6288 0.44889 21.6215 1.16002C21.6132 2.01442 21.6194 2.86881 21.6194 3.72321C21.6194 4.68245 21.6194 5.6417 21.6194 6.60095C21.6194 6.68296 21.6194 6.76394 21.6194 6.86256Z" fill="white"/>
<path d="M3.3709 25.44C2.59437 25.3113 1.83964 25.2023 1.09321 25.0548C0.61255 24.9593 0.32706 24.5814 0.346785 24.0987C0.430875 22.0411 1.08283 20.1828 2.35559 18.556C2.64731 18.1823 2.98575 17.846 3.30342 17.4919C3.32626 17.5065 3.34806 17.522 3.3709 17.5366C3.3709 20.1548 3.3709 22.773 3.3709 25.44Z" fill="white"/>
<path d="M37.1594 25.4559C37.1594 22.7878 37.1594 20.1821 37.1594 17.5774C37.177 17.5628 37.1936 17.5472 37.2113 17.5327C37.4916 17.8348 37.7864 18.1234 38.0501 18.4401C39.0789 19.6765 39.7028 21.1081 40.0163 22.6757C40.1056 23.12 40.1503 23.5768 40.1752 24.0305C40.2063 24.5797 39.9291 24.9555 39.3903 25.0665C38.6605 25.2181 37.9224 25.325 37.1594 25.4559Z" fill="white"/>
<path d="M26.6056 6.86261C25.229 6.86261 23.8514 6.86261 22.4613 6.86261C22.4613 4.98045 22.4613 3.10037 22.4613 1.21094C24.3102 1.84213 26.6803 5.08322 26.6056 6.86261Z" fill="white"/>
<path d="M16.2626 2.43041C16.2626 3.2111 16.2626 3.92846 16.2626 4.64685C16.2626 4.93961 16.4214 5.12959 16.6695 5.1379C16.9104 5.14517 17.1118 4.92819 17.1128 4.64789C17.1149 3.73329 17.1149 2.81868 17.1107 1.90407C17.1097 1.78053 17.1325 1.70059 17.2509 1.63519C17.498 1.49919 17.7347 1.34451 18.0035 1.17944C18.0035 3.08963 18.0035 4.96453 18.0035 6.85603C16.627 6.85603 15.2441 6.85603 13.8416 6.85603C14.1458 5.12544 14.9815 3.6928 16.2626 2.43041Z" fill="white"/>
<path d="M28.5034 8.07406C28.4047 7.54668 28.1722 7.09405 27.6749 6.75146C27.8618 6.75146 27.9936 6.75146 28.1244 6.75146C30.8018 6.75146 33.4782 6.75146 36.1555 6.7525C36.5095 6.7525 36.7473 6.93314 36.7898 7.22797C36.8511 7.64635 36.6839 7.97544 36.3642 8.06264C36.3144 8.07614 36.2614 8.08237 36.2095 8.08237C33.6827 8.08237 31.1558 8.08237 28.6279 8.08133C28.5926 8.08237 28.5553 8.07718 28.5034 8.07406Z" fill="white"/>
<path d="M12.7557 6.75031C12.2439 7.08667 12.0217 7.53722 11.9221 8.08225C11.839 8.08225 11.7581 8.08225 11.6771 8.08225C9.25406 8.08225 6.83207 8.07498 4.40904 8.0864C3.77473 8.08952 3.59928 7.4687 3.77162 7.08044C3.88789 6.81882 4.11421 6.74927 4.37997 6.74927C5.39216 6.75031 6.40539 6.74927 7.41758 6.74927C9.17724 6.75031 10.9369 6.75031 12.7557 6.75031Z" fill="white"/>
</svg>
