<svg width="117" height="117" viewBox="0 0 117 117" fill="none" xmlns="http://www.w3.org/2000/svg">
<path d="M67.7953 116.508C61.4263 116.508 55.0542 116.508 48.6852 116.508C48.6852 116.359 48.7217 116.201 48.6822 116.061C47.6673 112.533 46.6645 109.001 45.5888 105.491C45.4795 105.132 44.969 104.81 44.5709 104.64C41.511 103.339 38.4085 102.135 35.3759 100.777C34.5829 100.421 34.042 100.397 33.3066 100.813C30.1464 102.597 26.9589 104.327 23.8686 106.029C19.3835 101.539 14.9684 97.1204 10.4864 92.6374C12.2184 89.4796 13.9839 86.2245 15.7979 82.9907C16.1322 82.392 16.0957 81.9574 15.8222 81.3313C14.4609 78.216 13.1452 75.0795 11.9054 71.9126C11.6502 71.2591 11.3463 70.943 10.7021 70.7667C8.94882 70.2926 7.21679 69.7395 5.46653 69.2532C3.64941 68.7517 1.82319 68.2928 0 67.8156C0 61.4453 0 55.0749 0 48.7046C0.185358 48.6985 0.382866 48.7319 0.556069 48.6803C4.04748 47.6743 7.54496 46.6804 11.0181 45.6136C11.3737 45.5042 11.6927 44.9875 11.8629 44.5894C13.1786 41.4954 14.4123 38.3649 15.7736 35.2892C16.0866 34.581 16.1261 34.0978 15.7493 33.4291C13.9504 30.2348 12.2032 27.0071 10.4955 23.8918C14.9805 19.4028 19.3957 14.9867 23.8777 10.5008C27.0349 12.2332 30.2893 14.002 33.5224 15.8134C34.1149 16.1447 34.5525 16.1174 35.1815 15.8408C38.2262 14.5035 41.2922 13.2179 44.3855 12.0022C45.1209 11.7134 45.5524 11.4125 45.7712 10.6041C46.6554 7.3551 47.649 4.13346 48.5546 0.887501C48.7399 0.221898 49.0164 -0.00300895 49.7153 3.03302e-05C55.4037 0.0304232 61.092 0.0304232 66.7774 3.03302e-05C67.4793 -0.00300895 67.7528 0.227974 67.9381 0.890539C68.8497 4.17297 69.8312 7.43716 70.758 10.7135C70.9373 11.3487 71.232 11.6618 71.8944 11.9201C75.0303 13.1358 78.1358 14.4275 81.214 15.78C81.9129 16.087 82.399 16.1538 83.0767 15.7709C86.2703 13.9686 89.4973 12.221 92.6119 10.5099C97.0939 14.9898 101.512 19.4028 106 23.8858C104.268 27.0406 102.5 30.2987 100.689 33.5294C100.354 34.1251 100.391 34.5628 100.664 35.1889C102.014 38.2677 103.326 41.3677 104.539 44.5043C104.824 45.2459 105.177 45.5711 105.897 45.7717C109.106 46.6652 112.293 47.6317 115.502 48.5253C116.237 48.7289 116.514 49.0298 116.508 49.8413C116.465 55.4518 116.465 61.0653 116.508 66.6759C116.514 67.4813 116.256 67.7913 115.511 67.998C112.266 68.8976 109.039 69.8732 105.794 70.7728C105.089 70.9673 104.809 71.3381 104.548 72.0159C103.357 75.0795 102.108 78.1249 100.768 81.1246C100.418 81.9057 100.364 82.4437 100.789 83.1944C102.582 86.3522 104.305 89.5465 106.003 92.6314C101.518 97.1143 97.1 101.53 92.615 106.013C89.47 104.284 86.2156 102.515 82.9825 100.704C82.3838 100.369 81.9463 100.421 81.3234 100.692C78.1723 102.062 74.9726 103.327 71.8154 104.685C71.4082 104.861 70.9585 105.296 70.8279 105.706C70.0743 108.086 69.3967 110.493 68.7221 112.897C68.3757 114.095 68.0992 115.304 67.7953 116.508ZM22.9691 58.2844C22.9783 77.7085 38.7823 93.5158 58.2053 93.534C77.68 93.5523 93.5205 77.7145 93.5083 58.2358C93.4962 38.8026 77.7043 23.0074 58.2722 22.9892C38.8005 22.9709 22.96 38.8117 22.9691 58.2844Z" fill="#1C2D4A"/>
</svg>
