<svg width="39" height="41" viewBox="0 0 39 41" fill="none" xmlns="http://www.w3.org/2000/svg">
<path d="M13.2704 35.5435C12.3728 35.5435 11.5346 35.5435 10.6964 35.5435C8.83499 35.5435 6.97353 35.5648 5.11207 35.5356C2.64919 35.4975 1.07161 32.9605 2.13979 30.7961C2.74232 29.5753 3.96871 28.8853 5.37238 28.9762C6.65262 29.0592 7.79149 29.9456 8.21338 31.1899C8.25714 31.3201 8.29192 31.4536 8.37383 31.5849C8.37383 23.6375 8.37383 15.6901 8.37383 7.67651C8.56009 7.67651 8.70708 7.67651 8.85518 7.67651C18.1198 7.67651 27.3845 7.67651 36.6503 7.67651C37.6893 7.67651 38.1078 8.09167 38.1078 9.12282C38.1089 17.4495 38.1089 25.7772 38.1078 34.1039C38.1078 35.1395 37.6949 35.4829 36.6548 35.5603C35.7841 35.6242 35.1973 35.3213 34.588 34.7064C28.814 28.8819 23.0041 23.0933 17.211 17.289C16.6309 16.7078 15.9756 16.3723 15.1453 16.5013C14.0805 16.6674 13.3276 17.5314 13.2749 18.6164C13.267 18.7701 13.2715 18.9238 13.2715 19.0787C13.2715 24.3825 13.2715 29.6875 13.2715 34.9914C13.2704 35.1564 13.2704 35.3224 13.2704 35.5435Z" fill="white"/>
<path d="M25.8361 40.3381C22.4778 40.3381 19.1184 40.3381 15.7602 40.3381C14.8524 40.3381 14.5618 40.0453 14.5618 39.1263C14.5607 32.3952 14.5596 25.6641 14.5674 18.933C14.5674 18.6884 14.5989 18.418 14.7066 18.2059C14.9478 17.7347 15.5795 17.6213 16.0104 17.9389C16.1338 18.0298 16.2382 18.1453 16.347 18.2542C23.1151 25.0234 29.8832 31.7916 36.648 38.5642C36.813 38.7302 36.9902 38.9131 37.0755 39.1229C37.3201 39.7255 36.8623 40.3303 36.1633 40.3336C34.2603 40.3426 32.3573 40.337 30.4532 40.3381C28.9149 40.3381 27.3755 40.3381 25.8361 40.3381ZM28.051 36.0834C24.9687 33.0022 21.8899 29.9234 18.8211 26.8568C18.8211 29.8942 18.8211 32.9764 18.8211 36.0834C21.9157 36.0834 24.9878 36.0834 28.051 36.0834Z" fill="white"/>
<path d="M7.1138 28.1125C5.6731 27.5133 4.28851 27.4953 2.94655 28.2168C1.60347 28.9383 0.839363 30.0906 0.50724 31.5683C0.50724 31.3664 0.50724 31.1644 0.50724 30.9624C0.50724 23.1676 0.506115 15.3717 0.508359 7.57692C0.508359 5.95669 1.34316 4.72245 2.7558 4.23661C4.84055 3.5185 6.98925 5.01755 7.10819 7.27509C7.11492 7.40076 7.1138 7.52642 7.1138 7.65321C7.1138 14.3013 7.1138 20.9482 7.1138 27.5963C7.1138 27.7444 7.1138 27.8937 7.1138 28.1125Z" fill="white"/>
<path d="M18.2803 0.524902C22.2736 0.524902 26.2277 0.524902 30.2154 0.524902C30.2154 2.3729 30.2154 4.20743 30.2154 6.06777C26.2355 6.06777 22.2714 6.06777 18.2803 6.06777C18.2803 4.21977 18.2803 2.39422 18.2803 0.524902Z" fill="white"/>
<path d="M31.5686 6.08772C31.5686 4.20831 31.5686 2.38387 31.5686 0.508945C32.2216 0.508945 32.8601 0.49997 33.4974 0.519045C33.5916 0.521289 33.7061 0.63798 33.7712 0.729987C34.8898 2.3244 34.8932 4.27226 33.7723 5.85995C33.6971 5.96654 33.5389 6.07314 33.4166 6.07762C32.8174 6.09894 32.2171 6.08772 31.5686 6.08772Z" fill="white"/>
<path d="M16.9541 0.532715C16.9541 2.40764 16.9541 4.21076 16.9541 6.061C16.806 5.99367 16.6814 5.9443 16.5625 5.88259C15.2845 5.22171 14.0009 4.56981 12.7352 3.88424C12.5321 3.77428 12.2931 3.51285 12.2875 3.31425C12.2819 3.11901 12.5086 2.83738 12.7072 2.72966C14.0211 2.01829 15.3563 1.34283 16.6837 0.65614C16.7555 0.61799 16.8306 0.587695 16.9541 0.532715Z" fill="white"/>
</svg>
