<svg width="41" height="37" viewBox="0 0 41 37" fill="none" xmlns="http://www.w3.org/2000/svg">
<path d="M0 17.6382C0.149426 17.3864 0.370953 17.307 0.658311 17.3185C1.09928 17.3352 1.54233 17.3227 1.9833 17.3227C2.10974 17.0311 2.24453 16.7636 2.33753 16.4836C2.36783 16.3927 2.32395 16.2359 2.25707 16.1617C1.98539 15.8629 1.68758 15.5891 1.40753 15.2976C1.1254 15.0018 1.12435 14.7835 1.41276 14.4888C2.04286 13.8482 2.67923 13.2119 3.31873 12.5807C3.61654 12.2871 3.84747 12.2955 4.15782 12.5954C4.4295 12.8587 4.70014 13.122 4.9572 13.3989C5.092 13.5442 5.20276 13.5327 5.39294 13.4909C6.06901 13.3414 6.21322 12.9423 6.17873 12.2923C6.11917 11.1575 6.16201 11.1554 7.30518 11.1554C7.99588 11.1554 8.68659 11.1523 9.3773 11.1565C9.85483 11.1596 10.0084 11.3153 10.0116 11.7887C10.0147 12.2432 10.0126 12.6988 10.0126 13.1523C10.3094 13.2756 10.58 13.4073 10.8632 13.4971C10.9541 13.5264 11.1098 13.4815 11.184 13.4135C11.4829 13.1419 11.7566 12.844 12.0482 12.564C12.3219 12.3017 12.5581 12.2944 12.8298 12.5598C13.4902 13.2077 14.1422 13.8639 14.7922 14.5222C15.0356 14.7699 15.0252 15.0311 14.7817 15.2777C14.5069 15.5557 14.2384 15.8409 13.95 16.1043C13.789 16.2505 13.7974 16.3697 13.8517 16.5734C14.0189 17.2035 14.3805 17.377 15.0252 17.3404C16.1767 17.2756 16.1799 17.3216 16.1799 18.4899C16.1799 19.1806 16.184 19.8713 16.1778 20.562C16.1736 21.0165 16.02 21.1659 15.5633 21.1712C15.1077 21.1764 14.6522 21.1722 14.1924 21.1722C14.0618 21.4721 13.9217 21.7511 13.8246 22.0447C13.7963 22.1315 13.8632 22.284 13.9353 22.3624C14.2081 22.6602 14.5017 22.9382 14.7859 23.2255C15.0315 23.4742 15.0315 23.7365 14.7911 23.981C14.1422 24.6404 13.4891 25.2955 12.8287 25.9434C12.5539 26.213 12.3324 26.2005 12.0471 25.9371C11.9416 25.84 11.8434 25.7355 11.742 25.6341C11.0022 24.8943 11.0022 24.8943 10.0137 25.3561C10.0137 25.8128 10.0178 26.2809 10.0126 26.748C10.0074 27.1754 9.85066 27.3332 9.4191 27.3353C8.53299 27.3405 7.64688 27.3405 6.76077 27.3353C6.32398 27.3332 6.17351 27.1817 6.16619 26.7511C6.15993 26.3729 6.15157 25.9946 6.16933 25.6174C6.17978 25.3959 6.07633 25.3238 5.89973 25.2172C5.33442 24.8765 4.96033 25.028 4.534 25.5056C3.76806 26.3624 3.73462 26.3321 2.93419 25.5327C2.4368 25.0353 1.93627 24.54 1.44202 24.0395C1.11809 23.7114 1.11913 23.5045 1.43575 23.1754C1.57995 23.0249 1.71266 22.8556 1.88089 22.7375C2.35739 22.4011 2.46397 22.0332 2.14213 21.5066C2.00524 21.2819 1.91956 21.1409 1.63638 21.1659C1.33857 21.1921 1.03345 21.2036 0.738774 21.1618C0.485898 21.1262 0.245561 21.0061 0 20.9225C0 19.8284 0 18.7333 0 17.6382ZM9.49224 19.2109C9.33341 18.911 9.24981 18.4867 9.00112 18.3373C8.49746 18.0343 8.54134 17.6205 8.5497 17.1732C8.55388 16.9914 8.54866 16.8096 8.5497 16.6267C8.55179 16.3237 8.41804 16.1053 8.10665 16.0938C7.77227 16.0813 7.62284 16.308 7.61448 16.6236C7.60612 16.9747 7.60299 17.3258 7.61448 17.6769C7.62075 17.888 7.57268 18.0249 7.36997 18.1482C6.93736 18.4115 6.6803 18.8441 6.7848 19.3331C6.87884 19.772 6.71792 20.0123 6.4243 20.2506C6.36473 20.2997 6.30831 20.3572 6.26337 20.4188C6.10559 20.6362 6.09723 20.8629 6.29263 21.0531C6.48804 21.2422 6.71897 21.2307 6.92795 21.0635C7.04917 20.9674 7.16202 20.8556 7.26025 20.7354C7.42326 20.5379 7.59149 20.4857 7.86109 20.539C8.68346 20.6999 9.40446 20.0813 9.49224 19.2109ZM5.59043 22.1868C5.55908 21.9099 5.39921 21.749 5.10976 21.7469C4.8433 21.7448 4.46503 22.1242 4.47652 22.3854C4.48906 22.6696 4.65521 22.8399 4.93943 22.8587C5.21948 22.8776 5.59775 22.4794 5.59043 22.1868ZM11.695 22.399C11.6908 22.0959 11.3073 21.7239 11.0231 21.748C10.7535 21.7699 10.5999 21.934 10.5779 22.1983C10.556 22.469 10.9583 22.8786 11.231 22.8608C11.5163 22.842 11.6709 22.6717 11.695 22.399ZM5.59148 16.2986C5.5873 16.0081 5.22366 15.633 4.94884 15.6445C4.6573 15.656 4.49011 15.8263 4.47652 16.1147C4.46503 16.3728 4.86315 16.7709 5.12125 16.7573C5.4107 16.7438 5.56849 16.5745 5.59148 16.2986ZM11.696 16.1084C11.6741 15.8315 11.5236 15.6612 11.2352 15.6445C10.975 15.6288 10.5832 15.9966 10.5811 16.262C10.5779 16.5494 10.742 16.7229 11.022 16.7563C11.2937 16.7897 11.6887 16.4021 11.696 16.1084ZM8.55075 23.5735C8.55284 23.1983 8.38356 22.9705 8.0962 22.9653C7.80989 22.9591 7.61657 23.1942 7.61239 23.5536C7.60821 23.9298 7.7754 24.1472 8.0753 24.1534C8.38042 24.1586 8.54866 23.9538 8.55075 23.5735ZM7.61239 14.9527C7.61866 15.3195 7.80466 15.5379 8.10351 15.5275C8.39714 15.517 8.55493 15.3017 8.55075 14.9172C8.54657 14.5379 8.37415 14.3352 8.06798 14.3456C7.77018 14.3571 7.60612 14.5755 7.61239 14.9527ZM3.75761 18.7866C3.37829 18.7897 3.17558 18.9601 3.18498 19.2662C3.19438 19.5672 3.40964 19.7302 3.78896 19.7239C4.14737 19.7177 4.38143 19.5212 4.37203 19.2349C4.36158 18.9486 4.13587 18.7835 3.75761 18.7866ZM12.4118 19.7239C12.7849 19.7208 12.998 19.5431 12.9928 19.2401C12.9876 18.9413 12.7775 18.7824 12.392 18.7856C12.0126 18.7887 11.8026 18.9601 11.8099 19.261C11.8162 19.5578 12.0367 19.7271 12.4118 19.7239Z" fill="white"/>
<path d="M34.2709 36.1587C34.2709 35.2528 34.2709 34.3687 34.2709 33.4837C34.2709 33.3531 34.2688 33.2235 34.2709 33.0929C34.2761 32.77 34.1403 32.5495 33.7986 32.5547C33.4558 32.5599 33.3336 32.7961 33.3325 33.1096C33.3304 33.8264 33.3315 34.5432 33.3315 35.2601C33.3315 35.5579 33.3315 35.8546 33.3315 36.1807C28.4986 36.1807 23.6992 36.1807 18.8538 36.1807C18.8538 35.4711 18.8538 34.771 18.8538 34.0709C18.8538 33.7585 18.857 33.445 18.8528 33.1326C18.8475 32.748 18.6772 32.5328 18.3784 32.5526C18.0116 32.5767 17.9123 32.8222 17.9134 33.1493C17.9176 34.0229 17.9144 34.8954 17.9144 35.769C17.9144 35.8975 17.9144 36.025 17.9144 36.1838C17.7619 36.1942 17.6365 36.2099 17.5121 36.2099C15.9614 36.212 14.4107 36.212 12.859 36.2099C12.2696 36.2089 12.1307 36.0762 12.1443 35.5025C12.1787 33.9727 12.3271 32.4607 12.9144 31.0249C13.5664 29.4293 14.7263 28.3426 16.3031 27.6968C17.2895 27.2924 18.2916 26.9256 19.2948 26.5651C19.393 26.5296 19.5801 26.6226 19.6751 26.7114C20.4892 27.4711 21.3387 28.1827 22.3721 28.6216C25.8027 30.0782 28.9971 29.6853 31.8518 27.2579C32.4934 26.7125 32.9825 26.4627 33.7954 26.8859C34.7014 27.3582 35.7213 27.6111 36.6324 28.0751C38.413 28.98 39.3399 30.5589 39.7087 32.4555C39.9115 33.4973 39.9522 34.5725 40.0389 35.6342C40.0703 36.0239 39.8927 36.2026 39.5133 36.2047C37.8195 36.212 36.1246 36.2057 34.4307 36.2026C34.3942 36.2026 34.3576 36.1828 34.2709 36.1587Z" fill="white"/>
<path d="M34.0473 12.7781C34.7056 13.6893 34.8958 14.6088 34.6461 15.5984C34.4015 16.5649 33.7986 17.2358 32.8446 17.5378C32.5624 17.6276 32.458 17.7739 32.3859 18.031C31.9491 19.5712 31.32 21.0226 30.3158 22.2839C29.4851 23.3267 28.4778 24.1386 27.1465 24.4354C25.3806 24.8294 23.8874 24.2431 22.5968 23.0561C21.2457 21.8137 20.4526 20.2274 19.8696 18.52C19.7389 18.1386 19.625 17.7509 19.5352 17.3591C19.4756 17.0989 19.3638 16.9777 19.0848 16.9233C17.8957 16.6914 17.0963 15.8753 16.928 14.7478C16.8225 14.0404 17.0576 13.4144 17.4735 12.8167C17.3429 12.777 17.2353 12.7478 17.1297 12.7112C16.5728 12.52 16.2352 12.1407 16.1746 11.5492C16.1485 11.2911 16.1496 11.0278 16.1642 10.7687C16.2049 10.0299 16.7138 9.50846 17.4505 9.44263C17.5801 9.43113 17.7107 9.43531 17.8413 9.43531C23.3388 9.43531 28.8372 9.43531 34.3347 9.43531C35.7798 9.43531 36.551 10.707 35.8937 12.0142C35.6429 12.5127 35.2155 12.753 34.6638 12.777C34.4851 12.7854 34.3075 12.7781 34.0473 12.7781ZM25.809 12.7791C23.6982 12.7791 21.5864 12.8084 19.4767 12.7624C18.787 12.7467 18.0002 13.4897 17.8842 14.0811C17.741 14.8115 18.0702 15.5221 18.786 15.8418C19.043 15.9568 19.3325 16.0519 19.6083 16.0571C20.0681 16.0644 20.2269 16.2943 20.3419 16.6997C20.5895 17.5743 20.8403 18.4531 21.182 19.2933C21.7316 20.6475 22.508 21.8638 23.7003 22.7593C25.2928 23.9558 27.204 23.9098 28.6805 22.6099C29.1256 22.2181 29.5269 21.7583 29.8759 21.2776C30.7348 20.0926 31.2437 18.7426 31.6063 17.334C31.6868 17.0226 31.8101 16.8053 32.1727 16.7342C33.3232 16.5095 33.8791 15.7541 33.7944 14.5837C33.715 13.4824 32.9637 12.7791 31.8665 12.7791C29.8487 12.7791 27.8289 12.7791 25.809 12.7791Z" fill="white"/>
<path d="M28.9281 8.48464C27.0232 8.48464 25.1621 8.48464 23.2572 8.48464C23.206 7.7929 23.1537 7.1095 23.1067 6.42611C22.9886 4.69778 22.8664 2.96841 22.7608 1.23904C22.7117 0.439657 23.1005 0.0195929 23.9134 0.0112334C25.3732 -0.00339576 26.833 -0.00444128 28.2928 0.0122777C29.1224 0.0216822 29.4903 0.462646 29.4328 1.28501C29.2708 3.59851 29.1141 5.912 28.9553 8.2255C28.95 8.30178 28.9385 8.37702 28.9281 8.48464Z" fill="white"/>
<path d="M20.3126 25.9566C21.0837 25.3474 21.4913 24.5209 21.694 23.5491C24.6188 26.1259 27.5373 26.1938 30.4924 23.5606C30.7118 24.5083 31.0984 25.3579 31.8947 25.9577C28.7003 29.4248 23.3335 29.2931 20.3126 25.9566Z" fill="white"/>
<path d="M34.3963 8.47518C32.9052 8.47518 31.4141 8.47518 29.8853 8.47518C30.0264 6.41978 30.1654 4.38738 30.3043 2.34766C32.1675 2.88789 34.505 6.39784 34.3963 8.47518Z" fill="white"/>
<path d="M17.741 8.47006C18.1192 5.75427 19.5121 3.76366 21.8852 2.32373C22.0294 4.41361 22.1684 6.42721 22.3094 8.47006C20.7838 8.47006 19.2948 8.47006 17.741 8.47006Z" fill="white"/>
<path d="M25.8089 12.7792C27.8288 12.7792 29.8476 12.7792 31.8675 12.7792C32.9647 12.7792 33.716 13.4824 33.7954 14.5838C33.8801 15.7531 33.3241 16.5096 32.1737 16.7343C31.8111 16.8053 31.6878 17.0227 31.6073 17.3341C31.2447 18.7426 30.7358 20.0927 29.8769 21.2777C29.5279 21.7583 29.1266 22.2181 28.6815 22.61C27.205 23.9099 25.2927 23.9558 23.7013 22.7594C22.509 21.8639 21.7337 20.6476 21.183 19.2933C20.8413 18.4532 20.5905 17.5744 20.3428 16.6998C20.2279 16.2943 20.0691 16.0645 19.6093 16.0571C19.3334 16.053 19.0429 15.9568 18.7869 15.8419C18.0711 15.5221 17.742 14.8116 17.8851 14.0812C18.0011 13.4897 18.788 12.7468 19.4776 12.7625C21.5874 12.8084 23.6981 12.7792 25.8089 12.7792Z" fill="white"/>
<path d="M8.52142 19.3508C8.36886 19.4438 8.2069 19.6194 8.06479 19.6048C7.93312 19.5912 7.74503 19.3864 7.72205 19.2432C7.68443 19.0154 7.86625 18.8378 8.10658 18.8879C8.2581 18.9193 8.38454 19.0739 8.52142 19.1732C8.52142 19.2328 8.52142 19.2913 8.52142 19.3508Z" fill="white"/>
</svg>
