<svg width="49" height="49" viewBox="0 0 49 49" fill="none" xmlns="http://www.w3.org/2000/svg">
<path d="M28.3344 48.6833C25.6726 48.6833 23.0094 48.6833 20.3476 48.6833C20.3476 48.6211 20.3628 48.555 20.3463 48.4966C19.9221 47.0222 19.503 45.5465 19.0535 44.0796C19.0077 43.9298 18.7944 43.7952 18.628 43.724C17.3491 43.1805 16.0525 42.6776 14.7851 42.1099C14.4536 41.9613 14.2275 41.9511 13.9202 42.1251C12.5994 42.8706 11.2672 43.5932 9.97566 44.3044C8.10118 42.4287 6.2559 40.5821 4.38269 38.7089C5.10657 37.3894 5.84443 36.0292 6.60261 34.678C6.7423 34.4278 6.72706 34.2462 6.61276 33.9846C6.04382 32.6829 5.49392 31.3722 4.97577 30.0489C4.86909 29.7759 4.74209 29.6438 4.47286 29.5701C3.74008 29.372 3.01619 29.1409 2.28469 28.9377C1.52524 28.7282 0.761986 28.5364 0 28.337C0 25.6751 0 23.0133 0 20.3514C0.0774686 20.3488 0.160015 20.3628 0.232404 20.3412C1.69161 19.9209 3.15335 19.5056 4.60493 19.0598C4.75352 19.0141 4.88687 18.7982 4.95799 18.6318C5.50789 17.339 6.0235 16.0309 6.59245 14.7457C6.72326 14.4498 6.73976 14.2479 6.58229 13.9685C5.83046 12.6337 5.10022 11.285 4.3865 9.9833C6.26098 8.10754 8.10626 6.26227 9.97947 4.38778C11.299 5.11167 12.6591 5.85079 14.0104 6.6077C14.258 6.74613 14.4409 6.7347 14.7038 6.61913C15.9763 6.06034 17.2577 5.52314 18.5505 5.01515C18.8579 4.8945 19.0382 4.76877 19.1297 4.43096C19.4992 3.07336 19.9145 1.72718 20.293 0.370846C20.3704 0.0927207 20.486 -0.0012573 20.7781 1.26736e-05C23.1555 0.0127124 25.5329 0.0127124 27.909 1.26736e-05C28.2024 -0.0012573 28.3167 0.09526 28.3941 0.372115C28.7751 1.74369 29.1853 3.10764 29.5727 4.47668C29.6476 4.7421 29.7708 4.87291 30.0476 4.98086C31.3583 5.48885 32.6562 6.02859 33.9427 6.59373C34.2348 6.722 34.4379 6.74994 34.7212 6.58992C36.0559 5.83682 37.4046 5.10659 38.7063 4.39159C40.5796 6.26354 42.4261 8.10754 44.3019 9.98076C43.578 11.299 42.8388 12.6604 42.0819 14.0104C41.9422 14.2593 41.9575 14.4422 42.0718 14.7038C42.6356 15.9903 43.1843 17.2857 43.691 18.5963C43.8104 18.9062 43.9577 19.042 44.2587 19.1259C45.5998 19.4992 46.932 19.9031 48.2731 20.2765C48.5804 20.3615 48.696 20.4873 48.6934 20.8264C48.6757 23.1707 48.6757 25.5164 48.6934 27.8608C48.696 28.1973 48.588 28.3268 48.2769 28.4132C46.9206 28.7891 45.5718 29.1968 44.2155 29.5727C43.9209 29.654 43.804 29.8089 43.6948 30.0921C43.197 31.3722 42.675 32.6448 42.115 33.8982C41.9689 34.2246 41.9461 34.4494 42.1239 34.7631C42.8731 36.0826 43.5932 37.4173 44.3031 38.7064C42.4286 40.5796 40.5821 42.4248 38.7076 44.2981C37.3932 43.5754 36.033 42.8363 34.6818 42.0794C34.4316 41.9397 34.2487 41.9613 33.9884 42.0743C32.6714 42.6471 31.3341 43.1754 30.0146 43.7431C29.8444 43.8167 29.6565 43.9983 29.6019 44.1698C29.2869 45.1642 29.0037 46.17 28.7218 47.1746C28.577 47.6749 28.4614 48.1804 28.3344 48.6833ZM9.59975 24.3544C9.60356 32.4708 16.2087 39.0759 24.3264 39.0835C32.4657 39.0912 39.0861 32.4733 39.081 24.334C39.0759 16.2138 32.4758 9.61373 24.3543 9.60611C16.2163 9.59849 9.59594 16.2176 9.59975 24.3544Z" fill="white"/>
<path d="M35.7752 23.8629C35.7854 30.4185 30.4718 35.7562 23.9225 35.7727C17.3504 35.7892 11.9987 30.454 12 23.8857C12.0013 17.3326 17.3237 12.0064 23.8768 12C30.4312 11.9949 35.7651 17.3123 35.7752 23.8629ZM28.1935 19.3481C26.1882 21.3547 24.193 23.3523 22.1738 25.3741C21.3331 24.5245 20.4999 23.6825 19.6948 22.8697C19.0153 23.5492 18.36 24.2045 17.7314 24.8331C19.2224 26.3203 20.7412 27.8353 22.2271 29.3174C24.8649 26.6809 27.5382 24.0102 30.1988 21.3508C29.5727 20.7247 28.925 20.0783 28.1935 19.3481Z" fill="white"/>
</svg>
