<svg width="36" height="40" viewBox="0 0 36 40" fill="none" xmlns="http://www.w3.org/2000/svg">
<path d="M4.51984 37.0673C4.75242 36.2048 5.00224 35.3584 5.20683 34.5024C5.89812 31.6091 6.15655 28.677 5.92827 25.7083C5.90566 25.4165 5.97565 25.2227 6.23192 25.0827C7.17303 24.5712 8.11199 24.0554 9.05094 23.5386C9.25876 23.4245 9.39767 23.446 9.55057 23.6581C10.9601 25.6222 12.3825 27.5755 13.7931 29.5373C13.8879 29.6687 13.9589 29.8518 13.96 30.0111C13.9708 32.2681 13.9675 34.5239 13.9654 36.7809C13.9654 36.8724 13.9449 36.9628 13.9331 37.0662C10.7889 37.0673 7.66082 37.0673 4.51984 37.0673Z" fill="white"/>
<path d="M6.71753 14.3862C11.9948 14.3862 17.2129 14.3862 22.501 14.3862C22.2243 16.9037 21.1077 18.913 19.009 20.2752C16.2363 22.0745 13.3365 22.138 10.4938 20.4528C8.22826 19.1101 7.01903 17.0351 6.71753 14.3862Z" fill="white"/>
<path d="M28.2306 39.8317C26.5885 38.6418 24.94 37.508 23.3603 36.2837C21.9304 35.1757 21.2348 33.6369 21.2025 31.8366C21.1658 29.837 21.1884 27.8363 21.1981 25.8356C21.1992 25.7161 21.2789 25.5417 21.3758 25.4846C23.1891 24.4186 25.067 23.5195 27.1948 23.2697C29.0339 23.0543 30.7783 23.414 32.4505 24.144C33.3335 24.5295 34.1777 25.0033 35.0305 25.4534C35.1371 25.5094 35.2599 25.6644 35.2599 25.7732C35.2588 27.9343 35.2922 30.0965 35.2114 32.2554C35.149 33.9406 34.3564 35.3296 33.0234 36.3483C31.4664 37.537 29.8566 38.6547 28.2306 39.8317ZM33.6156 29.4762C33.6318 29.4762 33.6479 29.4762 33.6651 29.4762C33.6651 28.6568 33.6888 27.8363 33.6501 27.019C33.6393 26.7854 33.5036 26.4505 33.3217 26.3493C31.7959 25.5029 30.1968 24.8665 28.4158 24.8245C26.4981 24.7793 24.7828 25.4426 23.146 26.346C22.9576 26.4505 22.8165 26.8091 22.8122 27.0524C22.7832 28.6105 22.7842 30.1686 22.8026 31.7267C22.8187 33.1588 23.3948 34.3315 24.5502 35.1897C25.6173 35.9822 26.7059 36.7456 27.7827 37.5252C28.0831 37.7427 28.376 37.7459 28.6743 37.5306C29.7844 36.7284 30.9097 35.9456 32.0004 35.1186C32.9415 34.4047 33.5241 33.442 33.6049 32.2543C33.6662 31.3315 33.6156 30.4023 33.6156 29.4762Z" fill="white"/>
<path d="M21.2627 24.0395C20.8492 24.2839 20.482 24.4788 20.1439 24.7136C20.0266 24.7943 19.9103 24.9752 19.9103 25.112C19.8973 27.3538 19.8769 29.5968 19.9113 31.8375C19.9404 33.7553 20.6317 35.4211 21.9874 36.7961C22.0531 36.8629 22.1166 36.9329 22.179 37.0018C22.1844 37.0072 22.178 37.0244 22.1747 37.0589C19.8898 37.0589 17.6038 37.0589 15.2801 37.0589C15.2726 36.9103 15.2596 36.7681 15.2596 36.626C15.2586 34.4649 15.2532 32.3027 15.2682 30.1416C15.2693 29.9187 15.3458 29.6603 15.4739 29.4805C16.8554 27.5476 18.2585 25.631 19.6421 23.7003C19.809 23.4677 19.9479 23.415 20.1999 23.5463C20.5283 23.7197 20.8729 23.8618 21.2627 24.0395Z" fill="white"/>
<path d="M14.6039 13.0735C11.8096 13.0735 9.01643 13.0531 6.22218 13.0832C5.10878 13.0951 4.74375 12.3962 4.92142 11.4164C4.99895 10.9889 5.29291 10.7068 5.73332 10.6206C5.90237 10.5872 6.08004 10.5818 6.25341 10.5818C11.8279 10.5797 17.4014 10.5808 22.9759 10.5786C23.3904 10.5786 23.7921 10.6109 24.0709 10.9641C24.4338 11.4239 24.4112 11.9515 24.2195 12.4544C24.0419 12.9206 23.6327 13.0768 23.1449 13.0757C20.299 13.0714 17.452 13.0735 14.6039 13.0735Z" fill="white"/>
<path d="M4.70071 26.4419C4.70071 27.2419 4.72547 28.0291 4.6964 28.8151C4.59518 31.4877 4.09017 34.0871 3.28581 36.6358C3.1706 37.0019 3.01123 37.116 2.6419 37.0924C2.10673 37.0579 1.56726 37.0945 1.02995 37.0794C0.382802 37.0611 -0.0511404 36.5787 0.00485232 35.9402C0.322504 32.3351 1.76862 29.2545 4.31845 26.6885C4.39382 26.612 4.47566 26.542 4.5575 26.472C4.5758 26.457 4.6081 26.4602 4.70071 26.4419Z" fill="white"/>
<path d="M16.162 9.26835C15.1089 9.26835 14.1086 9.26835 13.0598 9.26835C13.0598 9.10253 13.0598 8.95824 13.0598 8.81395C13.0598 6.27705 13.0587 3.74014 13.0598 1.20432C13.0598 0.304131 13.3667 0.00155535 14.2723 0.00047857C14.5404 0.00047857 14.8096 -0.000598213 15.0777 0.00047857C15.811 0.00586249 16.1577 0.348279 16.1609 1.09018C16.1653 2.63321 16.162 4.17732 16.162 5.72035C16.162 6.88651 16.162 8.05266 16.162 9.26835Z" fill="white"/>
<path d="M17.4778 1.78149C17.9548 2.00762 18.3931 2.19713 18.8087 2.42864C18.8927 2.47494 18.925 2.68168 18.9175 2.81197C18.8443 4.07073 18.7581 5.32842 18.6763 6.58717C18.6709 6.66793 18.6666 6.74762 18.6655 6.82838C18.6612 7.25586 18.8755 7.53475 19.2362 7.57136C19.6012 7.60797 19.906 7.34093 19.9447 6.90914C19.9943 6.36213 20.0158 5.81189 20.0513 5.26273C20.0912 4.66297 20.1332 4.0632 20.1762 3.45266C21.5416 4.08258 23.1708 7.18479 23.2386 9.26406C21.3263 9.26406 19.415 9.26406 17.4767 9.26406C17.4778 6.79177 17.4778 4.33132 17.4778 1.78149Z" fill="white"/>
<path d="M5.95624 9.26056C6.20174 6.89702 7.20638 4.97819 9.00246 3.38132C9.03368 3.53746 9.06491 3.63114 9.0703 3.72482C9.1349 4.70254 9.19413 5.68133 9.25658 6.66013C9.26304 6.76673 9.26843 6.87548 9.28781 6.98101C9.3578 7.36542 9.63776 7.60124 9.9791 7.57109C10.3258 7.53986 10.5713 7.26528 10.5541 6.87225C10.5207 6.12066 10.4658 5.37122 10.4174 4.6207C10.3786 4.0177 10.3474 3.41363 10.2892 2.81278C10.2645 2.55758 10.3506 2.41545 10.5799 2.31854C10.9579 2.15918 11.3283 1.98258 11.7483 1.79199C11.7483 4.32566 11.7483 6.77857 11.7483 9.26056C9.82512 9.26056 7.91275 9.26056 5.95624 9.26056Z" fill="white"/>
<path d="M10.6499 22.9906C13.3031 22.2509 15.8993 22.2595 18.5729 22.9842C17.242 24.8222 15.9423 26.6172 14.6114 28.4553C13.287 26.628 11.9851 24.833 10.6499 22.9906Z" fill="white"/>
<path d="M28.2274 36.273C27.1764 35.5031 26.119 34.7655 25.1047 33.9741C24.4349 33.4518 24.1162 32.7013 24.1011 31.8592C24.0742 30.4099 24.085 28.9595 24.0957 27.509C24.0968 27.3981 24.2034 27.2398 24.3046 27.1849C26.9148 25.7711 29.5335 25.7754 32.1469 27.1774C32.2448 27.2302 32.3633 27.3637 32.3633 27.4595C32.3601 29.0295 32.3654 30.6005 32.3116 32.1683C32.2847 32.9436 31.8798 33.5832 31.2693 34.0484C30.2786 34.8043 29.2578 35.5225 28.2274 36.273ZM27.4639 31.0387C27.142 30.6769 26.8405 30.2958 26.4948 29.9609C26.1599 29.6357 25.6775 29.6658 25.3728 29.9792C25.0605 30.3011 25.0498 30.7555 25.3857 31.099C25.9209 31.646 26.469 32.1823 27.0289 32.7045C27.3487 33.0028 27.7902 33.0297 28.0895 32.7358C29.1157 31.729 30.1279 30.7082 31.125 29.6734C31.4222 29.3643 31.3759 28.9121 31.0873 28.6149C30.7912 28.3091 30.3379 28.2854 29.9944 28.5654C29.891 28.6494 29.8016 28.7517 29.7047 28.8453C28.994 29.5409 28.2834 30.2355 27.4639 31.0387Z" fill="white"/>
</svg>
