<svg width="98" height="101" viewBox="0 0 98 101" fill="none" xmlns="http://www.w3.org/2000/svg">
<path d="M72.7838 4.23549H24.8903V61.5774H72.7838V4.23549Z" fill="url(#paint0_linear_69_123)"/>
<path d="M24.8903 48.4504L39.5515 43.1694V27.9247" stroke="white" stroke-width="2"/>
<path d="M28.4614 53.6844L41.4937 43.3323V27.9458" stroke="white" stroke-width="2"/>
<path d="M31.7089 57.2947L43.4378 43.4952V18.5238" stroke="white" stroke-width="2"/>
<path d="M39.8491 53.082L45.3859 43.4952L45.062 18.5467" stroke="white" stroke-width="2"/>
<path d="M44.4087 51.4667L47.1777 43.6581L47.0151 11.7184" stroke="white" stroke-width="2"/>
<path d="M49.3258 6.51613V49.5226" stroke="white" stroke-width="2"/>
<path d="M51.25 11.7184L50.9246 43.4952L53.8565 51.4667" stroke="white" stroke-width="2"/>
<path d="M52.8771 18.5452V43.4952L58.4158 53.0807" stroke="white" stroke-width="2"/>
<path d="M54.827 18.5238V43.4952L66.5561 57.2947" stroke="white" stroke-width="2"/>
<path d="M56.7721 27.9473L56.6261 43.3323L69.4785 53.6861" stroke="white" stroke-width="2"/>
<path d="M58.3878 27.9247L58.581 43.1694L73.0491 48.4504" stroke="white" stroke-width="2"/>
<path d="M24.8903 48.4504L39.5515 43.1694V27.9247" stroke="white" stroke-width="2"/>
<path d="M28.4614 53.6844L41.4937 43.3323V27.9458" stroke="white" stroke-width="2"/>
<path d="M31.7089 57.2947L43.4378 43.4952V18.5238" stroke="white" stroke-width="2"/>
<path d="M39.8491 53.082L45.3859 43.4952L45.062 18.5467" stroke="white" stroke-width="2"/>
<path d="M44.4087 51.4667L47.1777 43.6581L47.0151 11.7184" stroke="white" stroke-width="2"/>
<path d="M49 6.51613V49.5226" stroke="white" stroke-width="2"/>
<path d="M51.25 11.7184L50.9246 43.4952L53.8565 51.4667" stroke="white" stroke-width="2"/>
<path d="M52.8771 18.5452V43.4952L58.4158 53.0807" stroke="white" stroke-width="2"/>
<path d="M54.827 18.5238V43.4952L66.5561 57.2947" stroke="white" stroke-width="2"/>
<path d="M56.7721 27.9473L56.6261 43.3323L69.4785 53.6861" stroke="white" stroke-width="2"/>
<path d="M58.3878 27.9247L58.581 43.1694L73.0491 48.4504" stroke="white" stroke-width="2"/>
<path d="M12.0782 80.8V68.1669H13.5656V73.901H13.6014L19.6581 68.1669H21.5576L14.587 74.6895L14.6049 73.9369L22.0593 80.8H20.1061L13.6014 74.8508H13.5656V80.8H12.0782ZM28.2419 80.9613C26.5336 80.9613 25.2614 80.5253 24.4251 79.6532C23.6008 78.781 23.1887 77.497 23.1887 75.8005V68.1669H24.6581V75.7288C24.6581 77.0311 24.9448 78.0104 25.5182 78.6676C26.0916 79.3247 26.9995 79.6532 28.2419 79.6532C29.4127 79.6532 30.3027 79.3247 30.9119 78.6676C31.5212 78.0104 31.8258 77.0311 31.8258 75.7288V68.1669H33.2951V75.8005C33.2951 77.497 32.8651 78.781 32.005 79.6532C31.1568 80.5253 29.9025 80.9613 28.2419 80.9613ZM36.3499 80.8V68.1669H41.5107C42.8367 68.1669 43.864 68.4835 44.5928 69.1166C45.3216 69.7379 45.6859 70.6097 45.6859 71.7328C45.6859 72.4734 45.5187 73.1067 45.1841 73.6323C44.8616 74.1461 44.4015 74.5403 43.8043 74.8149C43.2189 75.0896 42.5321 75.2271 41.7436 75.2271L42.0662 74.9941H42.4245C42.9142 74.9941 43.3505 75.1137 43.7327 75.3525C44.1269 75.5913 44.4374 75.9917 44.6645 76.5531L46.4564 80.8H44.8257L43.1055 76.6248C42.9025 76.0872 42.5979 75.7409 42.1916 75.5855C41.7853 75.4183 41.2777 75.3346 40.6684 75.3346H37.8372V80.8H36.3499ZM37.8372 74.1698H41.2956C42.2512 74.1698 42.9742 73.9669 43.4639 73.5606C43.9656 73.1426 44.2165 72.545 44.2165 71.7686C44.2165 70.9922 43.9656 70.4009 43.4639 69.9946C42.9742 69.5883 42.2512 69.3854 41.2956 69.3854H37.8372V74.1698ZM51.77 80.8V74.9045L52.0925 75.908L46.8601 68.1669H48.5803L52.7376 74.4565H52.3613L56.5007 68.1669H58.1493L52.9347 75.908L53.2573 74.9045V80.8H51.77ZM59.7816 80.8V68.1669H61.2689V79.5098H67.6482V80.8H59.7816ZM70.5817 80.8V74.9045L70.9043 75.908L65.6718 68.1669H67.3921L71.5494 74.4565H71.173L75.3124 68.1669H76.961L71.7465 75.908L72.069 74.9045V80.8H70.5817ZM82.0322 80.9613C81.017 80.9613 80.1089 80.83 79.3084 80.567C78.5083 80.3041 77.8094 79.9278 77.2119 79.4381L77.7495 78.2555C78.1678 78.5659 78.5858 78.8289 79.0038 79.0439C79.4339 79.2469 79.8939 79.4023 80.3836 79.5098C80.8736 79.6053 81.4229 79.6532 82.0322 79.6532C83.0956 79.6532 83.8841 79.456 84.3975 79.0618C84.9113 78.6676 85.1681 78.1421 85.1681 77.4849C85.1681 76.9236 84.9889 76.4935 84.6305 76.1947C84.2721 75.896 83.6449 75.6571 82.749 75.4779L80.8674 75.1016C79.7089 74.8628 78.8425 74.4745 78.2691 73.9369C77.7077 73.3993 77.4269 72.6705 77.4269 71.7507C77.4269 70.9981 77.6182 70.341 78.0003 69.7796C78.3946 69.2182 78.9442 68.782 79.6489 68.4715C80.354 68.161 81.1721 68.0056 82.1039 68.0056C82.9998 68.0056 83.8182 68.1431 84.5588 68.4177C85.2997 68.6806 85.9327 69.0687 86.4583 69.5825L85.9386 70.7293C85.3772 70.2276 84.7859 69.8692 84.1646 69.6542C83.5553 69.4271 82.8627 69.3137 82.0859 69.3137C81.1066 69.3137 80.3298 69.5287 79.7564 69.9588C79.1951 70.3768 78.9142 70.9502 78.9142 71.679C78.9142 72.2645 79.0934 72.7242 79.4518 73.0588C79.8102 73.3814 80.4015 73.6264 81.2258 73.7935L83.1253 74.1698C84.3438 74.4207 85.2397 74.797 85.8132 75.2988C86.3866 75.8005 86.6733 76.5052 86.6733 77.4132C86.6733 78.1062 86.4824 78.7214 86.0999 79.2589C85.7298 79.7965 85.198 80.2145 84.5051 80.5133C83.8124 80.8121 82.9881 80.9613 82.0322 80.9613Z" fill="white"/>
<path d="M91.3548 86.3387H6.31934V87.9677H91.3548V86.3387Z" fill="white"/>
<path d="M13.0529 96.1715C12.5924 96.1715 12.2015 96.0761 11.88 95.8848C11.5586 95.6936 11.3109 95.4222 11.1372 95.0703C10.9678 94.7184 10.8831 94.2991 10.8831 93.8127C10.8831 93.3263 10.9678 92.9093 11.1372 92.5616C11.3109 92.2097 11.5586 91.9383 11.88 91.7471C12.2015 91.5559 12.5924 91.4604 13.0529 91.4604C13.3787 91.4604 13.6698 91.5102 13.9261 91.6103C14.1824 91.7103 14.4061 91.8556 14.5973 92.0468L14.3953 92.4769C14.1867 92.2945 13.9804 92.1618 13.7762 92.0794C13.572 91.9924 13.3331 91.9491 13.0594 91.9491C12.5338 91.9491 12.1342 92.112 11.8605 92.4378C11.5868 92.7636 11.45 93.222 11.45 93.8127C11.45 94.4034 11.5868 94.8641 11.8605 95.1941C12.1342 95.5199 12.5338 95.6828 13.0594 95.6828C13.3331 95.6828 13.572 95.6415 13.7762 95.559C13.9804 95.472 14.1867 95.3352 14.3953 95.1485L14.5973 95.5851C14.4061 95.7718 14.1824 95.9174 13.9261 96.0217C13.6698 96.1217 13.3787 96.1715 13.0529 96.1715ZM16.152 96.1129V93.2654H14.966V92.8418H17.8722V93.2654H16.6798V96.1129H16.152ZM18.4461 97.5204V93.5977C18.4461 93.4762 18.4396 93.3524 18.4266 93.2263C18.4179 93.0959 18.407 92.9679 18.394 92.8418H18.9023L18.9739 93.6172H18.8957C18.9652 93.3608 19.1064 93.1588 19.3193 93.0112C19.5321 92.8591 19.7863 92.7832 20.0817 92.7832C20.3771 92.7832 20.6312 92.8506 20.8441 92.9852C21.0613 93.1197 21.2307 93.3132 21.3523 93.5651C21.4739 93.8169 21.5348 94.1213 21.5348 94.4774C21.5348 94.8292 21.4739 95.1313 21.3523 95.3831C21.235 95.6349 21.0678 95.8304 20.8506 95.9695C20.6334 96.1041 20.3771 96.1715 20.0817 96.1715C19.7906 96.1715 19.5387 96.0976 19.3258 95.95C19.113 95.8024 18.9718 95.6004 18.9023 95.344H18.9739V97.5204H18.4461ZM19.9774 95.7415C20.2902 95.7415 20.5378 95.6349 20.7203 95.4222C20.907 95.2049 21.0005 94.8902 21.0005 94.4774C21.0005 94.0603 20.907 93.7453 20.7203 93.5325C20.5378 93.3152 20.2902 93.2067 19.9774 93.2067C19.669 93.2067 19.4214 93.3152 19.2346 93.5325C19.0521 93.7453 18.9609 94.0603 18.9609 94.4774C18.9609 94.8902 19.0521 95.2049 19.2346 95.4222C19.4214 95.6349 19.669 95.7415 19.9774 95.7415ZM23.7656 96.1715C23.4528 96.1715 23.1791 96.1041 22.9445 95.9695C22.7143 95.8304 22.5362 95.6349 22.4102 95.3831C22.2843 95.1267 22.2213 94.825 22.2213 94.4774C22.2213 94.1255 22.2843 93.8235 22.4102 93.5716C22.5362 93.3198 22.7143 93.1262 22.9445 92.9917C23.1791 92.8526 23.4528 92.7832 23.7656 92.7832C24.0827 92.7832 24.3564 92.8526 24.5866 92.9917C24.8212 93.1262 25.0015 93.3198 25.1274 93.5716C25.2578 93.8235 25.3229 94.1255 25.3229 94.4774C25.3229 94.825 25.2578 95.1267 25.1274 95.3831C25.0015 95.6349 24.8212 95.8304 24.5866 95.9695C24.3564 96.1041 24.0827 96.1715 23.7656 96.1715ZM23.7656 95.7415C24.0783 95.7415 24.326 95.6349 24.5084 95.4222C24.6909 95.2049 24.7821 94.8902 24.7821 94.4774C24.7821 94.0603 24.6887 93.7453 24.5019 93.5325C24.3194 93.3152 24.074 93.2067 23.7656 93.2067C23.4572 93.2067 23.2117 93.3152 23.0293 93.5325C22.8468 93.7453 22.7556 94.0603 22.7556 94.4774C22.7556 94.8902 22.8468 95.2049 23.0293 95.4222C23.2117 95.6349 23.4572 95.7415 23.7656 95.7415ZM26.1834 96.1129V92.8418H26.6656V95.6242H26.4897L28.5748 92.8418H29.0179V96.1129H28.5423V93.324H28.7182L26.633 96.1129H26.1834ZM30.756 96.1129V93.2654H29.57V92.8418H32.4762V93.2654H31.2838V96.1129H30.756ZM34.4905 96.1715C33.978 96.1715 33.574 96.024 33.2785 95.7285C32.9833 95.4287 32.8354 95.014 32.8354 94.4839C32.8354 94.1408 32.9005 93.843 33.0309 93.5912C33.1612 93.3348 33.3436 93.1373 33.5782 92.9982C33.8128 92.8548 34.0822 92.7832 34.3862 92.7832C34.686 92.7832 34.9381 92.846 35.1421 92.9721C35.3464 93.0982 35.5028 93.2784 35.6112 93.513C35.7201 93.7433 35.7741 94.017 35.7741 94.334V94.5295H33.2394V94.1972H35.4288L35.318 94.2819C35.318 93.9342 35.2398 93.6628 35.0834 93.4674C34.9271 93.2719 34.6948 93.1741 34.3862 93.1741C34.0604 93.1741 33.8063 93.2891 33.6238 93.5195C33.4414 93.7453 33.3501 94.0515 33.3501 94.4383V94.4969C33.3501 94.9051 33.4502 95.216 33.6499 95.4287C33.8542 95.6372 34.1386 95.7415 34.5035 95.7415C34.699 95.7415 34.8814 95.7131 35.0509 95.6568C35.2248 95.5959 35.3897 95.4981 35.5461 95.3636L35.7285 95.735C35.5852 95.8741 35.4027 95.9826 35.1812 96.0608C34.9642 96.1347 34.7338 96.1715 34.4905 96.1715ZM36.4434 96.1846L36.2479 95.7741C36.4 95.7047 36.5261 95.62 36.6258 95.5199C36.7301 95.4157 36.8128 95.2854 36.8734 95.129C36.9343 94.9683 36.9777 94.7706 37.0037 94.536C37.0298 94.2972 37.0428 94.0105 37.0428 93.6759V92.8418H39.4017V96.1129H38.8804V93.2588H37.5315V93.6954C37.5315 94.2079 37.4947 94.6295 37.4208 94.9595C37.3514 95.2896 37.2364 95.5525 37.0754 95.748C36.919 95.9393 36.7086 96.0846 36.4434 96.1846ZM40.4439 96.1129V92.8418H40.9717V94.0147H41.9557C42.3769 94.0147 42.6939 94.1059 42.907 94.2884C43.124 94.4666 43.2328 94.7207 43.2328 95.0508C43.2328 95.2723 43.1827 95.4636 43.083 95.6242C42.9872 95.7806 42.8438 95.9021 42.6529 95.9891C42.4659 96.0715 42.2336 96.1129 41.9557 96.1129H40.4439ZM40.9717 95.735H41.9101C42.1749 95.735 42.3769 95.6806 42.5161 95.5721C42.6549 95.459 42.7246 95.2876 42.7246 95.0573C42.7246 94.8269 42.6549 94.6598 42.5161 94.5555C42.3812 94.4471 42.1792 94.3926 41.9101 94.3926H40.9717V95.735ZM44.02 96.1129V92.8418H44.5478V94.2102H46.3462V92.8418H46.8741V96.1129H46.3462V94.6337H44.5478V96.1129H44.02ZM49.185 96.1715C48.894 96.1715 48.6399 96.1041 48.4226 95.9695C48.2056 95.8304 48.0362 95.6349 47.9143 95.3831C47.7971 95.1313 47.7384 94.8292 47.7384 94.4774C47.7384 94.1213 47.7971 93.8169 47.9143 93.5651C48.0362 93.3132 48.2056 93.1197 48.4226 92.9852C48.6399 92.8506 48.894 92.7832 49.185 92.7832C49.4805 92.7832 49.7346 92.8591 49.9474 93.0112C50.1647 93.1588 50.308 93.3608 50.3774 93.6172H50.2993L50.3709 92.8418H50.8792C50.8662 92.9679 50.8531 93.0959 50.8401 93.2263C50.8316 93.3524 50.8271 93.4762 50.8271 93.5977V96.1129H50.2993V95.344H50.3709C50.3015 95.6004 50.1582 95.8024 49.9409 95.95C49.7239 96.0976 49.4717 96.1715 49.185 96.1715ZM49.2892 95.7415C49.602 95.7415 49.8496 95.6349 50.0321 95.4222C50.2145 95.2049 50.3058 94.8902 50.3058 94.4774C50.3058 94.0603 50.2145 93.7453 50.0321 93.5325C49.8496 93.3152 49.602 93.2067 49.2892 93.2067C48.981 93.2067 48.7334 93.3152 48.5464 93.5325C48.364 93.7453 48.2727 94.0603 48.2727 94.4774C48.2727 94.8902 48.364 95.2049 48.5464 95.4222C48.7334 95.6349 48.981 95.7415 49.2892 95.7415ZM51.6308 96.1129L52.1521 95.2137C52.2349 95.0703 52.3391 94.9553 52.4649 94.8683C52.591 94.7771 52.7236 94.7315 52.8624 94.7315H52.9536L52.9471 94.7901C52.5779 94.7901 52.2912 94.7077 52.087 94.5425C51.883 94.3731 51.7807 94.1297 51.7807 93.8127C51.7807 93.5087 51.8807 93.2719 52.0804 93.1025C52.2805 92.9288 52.5779 92.8418 52.9731 92.8418H54.4262V96.1129H53.931V94.8488H53.4423C53.2599 94.8488 53.1057 94.8944 52.9797 94.9856C52.8539 95.0768 52.7474 95.1919 52.6604 95.331L52.2173 96.1129H51.6308ZM53.0644 94.4774H53.931V93.2067H53.0644C52.7995 93.2067 52.6017 93.2631 52.4714 93.3761C52.3456 93.4892 52.2824 93.6433 52.2824 93.8388C52.2824 94.0431 52.3456 94.2014 52.4714 94.3145C52.6017 94.4229 52.7995 94.4774 53.0644 94.4774ZM57.1669 96.1129V92.8418H57.6947V94.2167H58.3138L59.3954 92.8418H59.9754L58.7373 94.4252L58.594 94.2623C58.7197 94.2754 58.8285 94.3057 58.9198 94.3536C59.011 94.4014 59.0977 94.4731 59.1804 94.5686C59.2671 94.664 59.3606 94.7966 59.4606 94.9661L60.1383 96.1129H59.5714L58.9719 95.0964C58.8979 94.9703 58.8263 94.8748 58.7569 94.8097C58.6917 94.7445 58.6155 94.6989 58.5288 94.6728C58.446 94.6468 58.3418 94.6337 58.216 94.6337H57.6947V96.1129H57.1669ZM62.0416 96.1715C61.7289 96.1715 61.4552 96.1041 61.2206 95.9695C60.9903 95.8304 60.812 95.6349 60.6863 95.3831C60.5602 95.1267 60.4973 94.825 60.4973 94.4774C60.4973 94.1255 60.5602 93.8235 60.6863 93.5716C60.812 93.3198 60.9903 93.1262 61.2206 92.9917C61.4552 92.8526 61.7289 92.7832 62.0416 92.7832C62.3587 92.7832 62.6323 92.8526 62.8627 92.9917C63.0973 93.1262 63.2774 93.3198 63.4035 93.5716C63.5338 93.8235 63.599 94.1255 63.599 94.4774C63.599 94.825 63.5338 95.1267 63.4035 95.3831C63.2774 95.6349 63.0973 95.8304 62.8627 95.9695C62.6323 96.1041 62.3587 96.1715 62.0416 96.1715ZM62.0416 95.7415C62.3544 95.7415 62.602 95.6349 62.7845 95.4222C62.9669 95.2049 63.0582 94.8902 63.0582 94.4774C63.0582 94.0603 62.9646 93.7453 62.778 93.5325C62.5955 93.3152 62.3499 93.2067 62.0416 93.2067C61.7331 93.2067 61.4878 93.3152 61.3053 93.5325C61.1229 93.7453 61.0316 94.0603 61.0316 94.4774C61.0316 94.8902 61.1229 95.2049 61.3053 95.4222C61.4878 95.6349 61.7331 95.7415 62.0416 95.7415ZM64.4594 96.1129V92.8418H64.9025L66.1276 95.0377L67.3591 92.8418H67.8022V96.1129H67.3331V93.4283H67.4699L66.2644 95.5851H65.9973L64.7853 93.4217H64.9286V96.1129H64.4594ZM68.8438 96.1129V92.8418H71.6783V96.1129H71.1505V93.2588H69.3716V96.1129H68.8438ZM73.9896 96.1715C73.6987 96.1715 73.4445 96.1041 73.2272 95.9695C73.0102 95.8304 72.8408 95.6349 72.719 95.3831C72.6017 95.1313 72.543 94.8292 72.543 94.4774C72.543 94.1213 72.6017 93.8169 72.719 93.5651C72.8408 93.3132 73.0102 93.1197 73.2272 92.9852C73.4445 92.8506 73.6987 92.7832 73.9896 92.7832C74.2851 92.7832 74.5392 92.8591 74.752 93.0112C74.9693 93.1588 75.1127 93.3608 75.1821 93.6172H75.1039L75.1756 92.8418H75.6838C75.6708 92.9679 75.6577 93.0959 75.6447 93.2263C75.6362 93.3524 75.6317 93.4762 75.6317 93.5977V96.1129H75.1039V95.344H75.1756C75.1062 95.6004 74.9628 95.8024 74.7455 95.95C74.5285 96.0976 74.2763 96.1715 73.9896 96.1715ZM74.0939 95.7415C74.4066 95.7415 74.6543 95.6349 74.8367 95.4222C75.0192 95.2049 75.1104 94.8902 75.1104 94.4774C75.1104 94.0603 75.0192 93.7453 74.8367 93.5325C74.6543 93.3152 74.4066 93.2067 74.0939 93.2067C73.7857 93.2067 73.538 93.3152 73.351 93.5325C73.1686 93.7453 73.0774 94.0603 73.0774 94.4774C73.0774 94.8902 73.1686 95.2049 73.351 95.4222C73.538 95.6349 73.7857 95.7415 74.0939 95.7415ZM76.6961 96.1129V92.8418H77.2239V94.2102H79.0223V92.8418H79.5502V96.1129H79.0223V94.6337H77.2239V96.1129H76.6961ZM80.5905 96.1129V92.8418H81.0726V95.6242H80.8967L82.9819 92.8418H83.425V96.1129H82.9493V93.324H83.1252L81.0401 96.1129H80.5905ZM84.2053 96.1129L84.7266 95.2137C84.809 95.0703 84.9133 94.9553 85.0393 94.8683C85.1654 94.7771 85.2977 94.7315 85.4368 94.7315H85.528L85.5215 94.7901C85.1524 94.7901 84.8657 94.7077 84.6614 94.5425C84.4571 94.3731 84.3551 94.1297 84.3551 93.8127C84.3551 93.5087 84.4552 93.2719 84.6549 93.1025C84.8546 92.9288 85.1524 92.8418 85.5476 92.8418H87.0007V96.1129H86.5055V94.8488H86.0168C85.8343 94.8488 85.6802 94.8944 85.5541 94.9856C85.428 95.0768 85.3218 95.1919 85.2348 95.331L84.7917 96.1129H84.2053ZM85.6388 94.4774H86.5055V93.2067H85.6388C85.3739 93.2067 85.1762 93.2631 85.0459 93.3761C84.9198 93.4892 84.8569 93.6433 84.8569 93.8388C84.8569 94.0431 84.9198 94.2014 85.0459 94.3145C85.1762 94.4229 85.3739 94.4774 85.6388 94.4774Z" fill="white"/>
<defs>
<linearGradient id="paint0_linear_69_123" x1="48.837" y1="4.23549" x2="48.837" y2="61.5774" gradientUnits="userSpaceOnUse">
<stop stop-color="#1C2D4A"/>
<stop offset="1" stop-color="#0C151E"/>
</linearGradient>
</defs>
</svg>
